M48
METRIC,TZ
T1C0.400
T2C0.800
T3C0.800
T4C1.001
T5C1.016
T6C3.048
%
G90
G05
T1
X85.Y-85.8
X85.3Y-90.8
X96.6Y-99.7
T2
X51.48Y-82.3
X51.48Y-84.84
X51.48Y-87.38
X51.48Y-89.92
X51.48Y-92.46
X51.48Y-95.
X51.48Y-97.54
X51.5Y-105.684
X51.5Y-108.224
X51.5Y-110.764
X51.5Y-113.304
X51.5Y-115.844
X51.5Y-118.384
X51.5Y-120.924
X59.1Y-82.3
X59.1Y-84.84
X59.1Y-87.38
X59.1Y-89.92
X59.1Y-92.46
X59.1Y-95.
X59.1Y-97.54
X59.12Y-105.684
X59.12Y-108.224
X59.12Y-110.764
X59.12Y-113.304
X59.12Y-115.844
X59.12Y-118.384
X59.12Y-120.924
X81.38Y-82.38
X81.38Y-84.92
X81.38Y-87.46
X81.38Y-90.
X81.38Y-92.54
X81.38Y-95.08
X81.38Y-97.62
X86.574Y-76.708
X89.Y-82.38
X89.Y-84.92
X89.Y-87.46
X89.Y-90.
X89.Y-92.54
X89.Y-95.08
X89.Y-97.62
X96.266Y-81.36
X96.266Y-86.36
X103.38Y-82.38
X103.38Y-84.92
X103.38Y-87.46
X103.38Y-90.
X103.38Y-92.54
X103.38Y-95.08
X103.38Y-97.62
X111.Y-82.38
X111.Y-84.92
X111.Y-87.46
X111.Y-90.
X111.Y-92.54
X111.Y-95.08
X111.Y-97.62
X123.094Y-82.46
X123.094Y-85.
X123.094Y-87.54
X123.094Y-90.08
X129.714Y-77.
X130.714Y-82.46
X130.714Y-85.
X130.714Y-87.54
X130.714Y-90.08
T3
X84.074Y-76.708
X127.214Y-77.
T4
X47.498Y-110.824
X47.498Y-120.984
X74.Y-88.92
X74.Y-99.08
X79.92Y-102.362
X90.08Y-102.362
X90.932Y-76.708
X101.092Y-76.708
X101.92Y-102.362
X112.08Y-102.362
X112.634Y-77.
X122.794Y-77.
T5
X86.26Y-106.434
X86.26Y-121.674
X88.8Y-106.434
X88.8Y-121.674
X91.34Y-106.434
X91.34Y-121.674
X93.88Y-106.434
X93.88Y-121.674
X96.42Y-106.434
X96.42Y-121.674
X98.96Y-106.434
X98.96Y-121.674
X101.5Y-106.434
X101.5Y-121.674
X104.04Y-106.434
X104.04Y-121.674
X106.58Y-106.434
X106.58Y-121.674
X109.12Y-106.434
X109.12Y-121.674
X111.66Y-106.434
X111.66Y-121.674
X114.2Y-106.434
X114.2Y-121.674
X116.74Y-106.434
X116.74Y-121.674
X119.28Y-106.434
X119.28Y-121.674
X121.82Y-106.434
X121.82Y-121.674
T6
X46.1Y-78.1
X127.2Y-117.3
T0
M30
