G04 #@! TF.FileFunction,Copper,L1,Top,Signal*
%FSLAX46Y46*%
G04 Gerber Fmt 4.6, Leading zero omitted, Abs format (unit mm)*
G04 Created by KiCad (PCBNEW 4.0.1-stable) date Monday, December 05, 2016 'AMt' 03:58:46 AM*
%MOMM*%
G01*
G04 APERTURE LIST*
%ADD10C,0.100000*%
%ADD11R,1.300000X1.300000*%
%ADD12C,1.300000*%
%ADD13R,1.727200X2.032000*%
%ADD14O,1.727200X2.032000*%
%ADD15C,1.998980*%
%ADD16O,1.600000X1.600000*%
%ADD17C,4.064000*%
%ADD18C,0.600000*%
%ADD19C,0.250000*%
%ADD20C,0.254000*%
G04 APERTURE END LIST*
D10*
D11*
X96266000Y-81360000D03*
D12*
X96266000Y-86360000D03*
D11*
X86574000Y-76708000D03*
D12*
X84074000Y-76708000D03*
D11*
X129714000Y-77000000D03*
D12*
X127214000Y-77000000D03*
D13*
X121820000Y-121674000D03*
D14*
X119280000Y-121674000D03*
X116740000Y-121674000D03*
X114200000Y-121674000D03*
X111660000Y-121674000D03*
X109120000Y-121674000D03*
X106580000Y-121674000D03*
X104040000Y-121674000D03*
X101500000Y-121674000D03*
X98960000Y-121674000D03*
X96420000Y-121674000D03*
X93880000Y-121674000D03*
X91340000Y-121674000D03*
X88800000Y-121674000D03*
X86260000Y-121674000D03*
D13*
X121820000Y-106434000D03*
D14*
X119280000Y-106434000D03*
X116740000Y-106434000D03*
X114200000Y-106434000D03*
X111660000Y-106434000D03*
X109120000Y-106434000D03*
X106580000Y-106434000D03*
X104040000Y-106434000D03*
X101500000Y-106434000D03*
X98960000Y-106434000D03*
X96420000Y-106434000D03*
X93880000Y-106434000D03*
X91340000Y-106434000D03*
X88800000Y-106434000D03*
X86260000Y-106434000D03*
D15*
X47498000Y-110824000D03*
X47498000Y-120984000D03*
X74000000Y-99080000D03*
X74000000Y-88920000D03*
X112080000Y-102362000D03*
X101920000Y-102362000D03*
X90080000Y-102362000D03*
X79920000Y-102362000D03*
X101092000Y-76708000D03*
X90932000Y-76708000D03*
X122794000Y-77000000D03*
X112634000Y-77000000D03*
D16*
X51500000Y-105684000D03*
X51500000Y-108224000D03*
X51500000Y-110764000D03*
X51500000Y-113304000D03*
X51500000Y-115844000D03*
X51500000Y-118384000D03*
X51500000Y-120924000D03*
X59120000Y-120924000D03*
X59120000Y-118384000D03*
X59120000Y-115844000D03*
X59120000Y-113304000D03*
X59120000Y-110764000D03*
X59120000Y-108224000D03*
X59120000Y-105684000D03*
X51480000Y-82300000D03*
X51480000Y-84840000D03*
X51480000Y-87380000D03*
X51480000Y-89920000D03*
X51480000Y-92460000D03*
X51480000Y-95000000D03*
X51480000Y-97540000D03*
X59100000Y-97540000D03*
X59100000Y-95000000D03*
X59100000Y-92460000D03*
X59100000Y-89920000D03*
X59100000Y-87380000D03*
X59100000Y-84840000D03*
X59100000Y-82300000D03*
X81380000Y-82380000D03*
X81380000Y-84920000D03*
X81380000Y-87460000D03*
X81380000Y-90000000D03*
X81380000Y-92540000D03*
X81380000Y-95080000D03*
X81380000Y-97620000D03*
X89000000Y-97620000D03*
X89000000Y-95080000D03*
X89000000Y-92540000D03*
X89000000Y-90000000D03*
X89000000Y-87460000D03*
X89000000Y-84920000D03*
X89000000Y-82380000D03*
X103380000Y-82380000D03*
X103380000Y-84920000D03*
X103380000Y-87460000D03*
X103380000Y-90000000D03*
X103380000Y-92540000D03*
X103380000Y-95080000D03*
X103380000Y-97620000D03*
X111000000Y-97620000D03*
X111000000Y-95080000D03*
X111000000Y-92540000D03*
X111000000Y-90000000D03*
X111000000Y-87460000D03*
X111000000Y-84920000D03*
X111000000Y-82380000D03*
X123094000Y-82460000D03*
X123094000Y-85000000D03*
X123094000Y-87540000D03*
X123094000Y-90080000D03*
X130714000Y-90080000D03*
X130714000Y-87540000D03*
X130714000Y-85000000D03*
X130714000Y-82460000D03*
D17*
X46100000Y-78100000D03*
X127200000Y-117300000D03*
D18*
X85000000Y-85800000D03*
X85300000Y-90800000D03*
X96600000Y-99700000D03*
D19*
X111900000Y-79500000D02*
X106260000Y-79500000D01*
X106260000Y-79500000D02*
X103380000Y-82380000D01*
X119940000Y-87540000D02*
X111900000Y-79500000D01*
X123094000Y-87540000D02*
X119940000Y-87540000D01*
X96266000Y-81360000D02*
X102360000Y-81360000D01*
X102360000Y-81360000D02*
X103380000Y-82380000D01*
X81380000Y-84920000D02*
X84120000Y-84920000D01*
X84120000Y-84920000D02*
X85000000Y-85800000D01*
X74000000Y-88920000D02*
X77380000Y-88920000D01*
X77380000Y-88920000D02*
X81380000Y-84920000D01*
X74000000Y-99080000D02*
X74000000Y-104300000D01*
X74000000Y-104300000D02*
X79200000Y-109500000D01*
X79200000Y-109500000D02*
X87500000Y-109500000D01*
X87500000Y-109500000D02*
X88800000Y-108200000D01*
X88800000Y-108200000D02*
X88800000Y-106434000D01*
X88900000Y-107086400D02*
X88900000Y-106934000D01*
X65700000Y-112100000D02*
X61956000Y-115844000D01*
X61956000Y-115844000D02*
X59120000Y-115844000D01*
X65700000Y-104300000D02*
X65700000Y-112100000D01*
X70920000Y-99080000D02*
X65700000Y-104300000D01*
X74000000Y-99080000D02*
X70920000Y-99080000D01*
X59919999Y-115044001D02*
X59120000Y-115844000D01*
X88900000Y-106781600D02*
X88900000Y-106934000D01*
X59120000Y-115844000D02*
X56580000Y-115844000D01*
X56580000Y-115844000D02*
X51500000Y-110764000D01*
X59100000Y-87380000D02*
X51480000Y-87380000D01*
X59100000Y-87380000D02*
X64920000Y-87380000D01*
X47498000Y-120984000D02*
X51440000Y-120984000D01*
X51440000Y-120984000D02*
X51500000Y-120924000D01*
X123094000Y-82460000D02*
X123094000Y-81328630D01*
X111080000Y-90080000D02*
X111000000Y-90000000D01*
X105700000Y-92760000D02*
X105700000Y-89780000D01*
X105700000Y-89780000D02*
X103380000Y-87460000D01*
X103380000Y-95080000D02*
X105700000Y-92760000D01*
X103380000Y-97620000D02*
X103380000Y-95080000D01*
X90932000Y-81280000D02*
X90932000Y-76708000D01*
X93726000Y-84074000D02*
X90932000Y-81280000D01*
X97282000Y-84074000D02*
X93726000Y-84074000D01*
X100668000Y-87460000D02*
X97282000Y-84074000D01*
X103380000Y-87460000D02*
X100668000Y-87460000D01*
X90932000Y-76708000D02*
X89518508Y-76708000D01*
X89518508Y-76708000D02*
X86574000Y-76708000D01*
X99800000Y-97600000D02*
X99800000Y-92125001D01*
X102000000Y-99800000D02*
X99800000Y-97600000D01*
X102700000Y-99800000D02*
X102000000Y-99800000D01*
X107100000Y-104200000D02*
X102700000Y-99800000D01*
X112118400Y-104200000D02*
X107100000Y-104200000D01*
X114200000Y-106434000D02*
X114200000Y-106281600D01*
X114200000Y-106281600D02*
X112118400Y-104200000D01*
X80400000Y-76500000D02*
X86280000Y-82380000D01*
X86280000Y-82380000D02*
X89000000Y-82380000D01*
X80400000Y-75900000D02*
X80400000Y-76500000D01*
X81898999Y-74401001D02*
X80400000Y-75900000D01*
X83300000Y-74200000D02*
X83098999Y-74401001D01*
X83098999Y-74401001D02*
X81898999Y-74401001D01*
X127814000Y-74200000D02*
X83300000Y-74200000D01*
X129714000Y-77000000D02*
X129714000Y-76100000D01*
X129714000Y-76100000D02*
X127814000Y-74200000D01*
X97745001Y-91125001D02*
X100800000Y-91125001D01*
X100800000Y-91125001D02*
X102254999Y-91125001D01*
X99800000Y-92125001D02*
X100800000Y-91125001D01*
X89000000Y-82380000D02*
X97745001Y-91125001D01*
X114300000Y-106781600D02*
X114300000Y-106934000D01*
X103380000Y-90000000D02*
X102254999Y-91125001D01*
X129714000Y-77000000D02*
X129714000Y-81460000D01*
X129714000Y-81460000D02*
X130714000Y-82460000D01*
X114300000Y-106781600D02*
X114046000Y-106527600D01*
X116900000Y-114700000D02*
X111660000Y-119940000D01*
X111660000Y-119940000D02*
X111660000Y-121674000D01*
X126900000Y-108100000D02*
X126900000Y-88814000D01*
X126900000Y-88814000D02*
X130714000Y-85000000D01*
X120300000Y-114700000D02*
X126900000Y-108100000D01*
X116900000Y-114700000D02*
X120300000Y-114700000D01*
X111760000Y-122021600D02*
X111900000Y-121881600D01*
X130714000Y-85000000D02*
X122794000Y-77080000D01*
X122794000Y-77080000D02*
X122794000Y-77000000D01*
X111760000Y-122174000D02*
X111760000Y-122021600D01*
X89000000Y-84920000D02*
X85300000Y-88620000D01*
X85300000Y-88620000D02*
X85300000Y-90800000D01*
X47498000Y-110824000D02*
X47498000Y-96442000D01*
X47498000Y-96442000D02*
X51480000Y-92460000D01*
X51480000Y-92460000D02*
X59100000Y-92460000D01*
X90080000Y-102362000D02*
X93938000Y-102362000D01*
X93938000Y-102362000D02*
X96600000Y-99700000D01*
X90080000Y-102362000D02*
X101920000Y-102362000D01*
X112634000Y-77000000D02*
X101384000Y-77000000D01*
X101384000Y-77000000D02*
X101092000Y-76708000D01*
X123094000Y-85000000D02*
X120634000Y-85000000D01*
X120634000Y-85000000D02*
X112634000Y-77000000D01*
X112522000Y-76888000D02*
X112634000Y-77000000D01*
X49200000Y-116084000D02*
X49200000Y-107984000D01*
X49200000Y-107984000D02*
X51500000Y-105684000D01*
X51500000Y-118384000D02*
X49200000Y-116084000D01*
X51500000Y-105684000D02*
X51500000Y-97560000D01*
X51500000Y-97560000D02*
X51480000Y-97540000D01*
X51480000Y-97540000D02*
X59100000Y-97540000D01*
X49824000Y-109900000D02*
X49824000Y-114168000D01*
X49824000Y-114168000D02*
X51500000Y-115844000D01*
X51500000Y-108224000D02*
X49824000Y-109900000D01*
X59120000Y-118384000D02*
X58320001Y-117584001D01*
X53240001Y-117584001D02*
X51500000Y-115844000D01*
X58320001Y-117584001D02*
X53240001Y-117584001D01*
X51480000Y-82300000D02*
X51480000Y-83431370D01*
X51480000Y-83431370D02*
X51480000Y-84840000D01*
X51480000Y-84840000D02*
X59100000Y-84840000D01*
X59100000Y-95000000D02*
X57968630Y-95000000D01*
X57968630Y-95000000D02*
X51480000Y-95000000D01*
X81380000Y-82380000D02*
X59180000Y-82380000D01*
X59180000Y-82380000D02*
X59100000Y-82300000D01*
D20*
G36*
X132673100Y-123773000D02*
X64729770Y-123773000D01*
X64766589Y-114108213D01*
X66237401Y-112637401D01*
X66402148Y-112390839D01*
X66460000Y-112100000D01*
X66460000Y-104614802D01*
X71234802Y-99840000D01*
X72545504Y-99840000D01*
X72613538Y-100004655D01*
X73072927Y-100464846D01*
X73240000Y-100534221D01*
X73240000Y-104300000D01*
X73297852Y-104590839D01*
X73462599Y-104837401D01*
X78662599Y-110037401D01*
X78909161Y-110202148D01*
X79200000Y-110260000D01*
X87500000Y-110260000D01*
X87790839Y-110202148D01*
X88037401Y-110037401D01*
X89337401Y-108737401D01*
X89502148Y-108490839D01*
X89560000Y-108200000D01*
X89560000Y-107878648D01*
X89859670Y-107678415D01*
X90070000Y-107363634D01*
X90280330Y-107678415D01*
X90766511Y-108003271D01*
X91340000Y-108117345D01*
X91913489Y-108003271D01*
X92399670Y-107678415D01*
X92610000Y-107363634D01*
X92820330Y-107678415D01*
X93306511Y-108003271D01*
X93880000Y-108117345D01*
X94453489Y-108003271D01*
X94939670Y-107678415D01*
X95150000Y-107363634D01*
X95360330Y-107678415D01*
X95846511Y-108003271D01*
X96420000Y-108117345D01*
X96993489Y-108003271D01*
X97479670Y-107678415D01*
X97690000Y-107363634D01*
X97900330Y-107678415D01*
X98386511Y-108003271D01*
X98960000Y-108117345D01*
X99533489Y-108003271D01*
X100019670Y-107678415D01*
X100230000Y-107363634D01*
X100440330Y-107678415D01*
X100926511Y-108003271D01*
X101500000Y-108117345D01*
X102073489Y-108003271D01*
X102559670Y-107678415D01*
X102770000Y-107363634D01*
X102980330Y-107678415D01*
X103466511Y-108003271D01*
X104040000Y-108117345D01*
X104613489Y-108003271D01*
X105099670Y-107678415D01*
X105310000Y-107363634D01*
X105520330Y-107678415D01*
X106006511Y-108003271D01*
X106580000Y-108117345D01*
X107153489Y-108003271D01*
X107639670Y-107678415D01*
X107850000Y-107363634D01*
X108060330Y-107678415D01*
X108546511Y-108003271D01*
X109120000Y-108117345D01*
X109693489Y-108003271D01*
X110179670Y-107678415D01*
X110390000Y-107363634D01*
X110600330Y-107678415D01*
X111086511Y-108003271D01*
X111660000Y-108117345D01*
X112233489Y-108003271D01*
X112719670Y-107678415D01*
X112930000Y-107363634D01*
X113140330Y-107678415D01*
X113626511Y-108003271D01*
X114200000Y-108117345D01*
X114773489Y-108003271D01*
X115259670Y-107678415D01*
X115470000Y-107363634D01*
X115680330Y-107678415D01*
X116166511Y-108003271D01*
X116740000Y-108117345D01*
X117313489Y-108003271D01*
X117799670Y-107678415D01*
X118006461Y-107368931D01*
X118377964Y-107784732D01*
X118905209Y-108038709D01*
X118920974Y-108041358D01*
X119153000Y-107920217D01*
X119153000Y-106561000D01*
X119133000Y-106561000D01*
X119133000Y-106307000D01*
X119153000Y-106307000D01*
X119153000Y-104947783D01*
X119407000Y-104947783D01*
X119407000Y-106307000D01*
X119427000Y-106307000D01*
X119427000Y-106561000D01*
X119407000Y-106561000D01*
X119407000Y-107920217D01*
X119639026Y-108041358D01*
X119654791Y-108038709D01*
X120182036Y-107784732D01*
X120338907Y-107609155D01*
X120353238Y-107685317D01*
X120492310Y-107901441D01*
X120704510Y-108046431D01*
X120956400Y-108097440D01*
X122683600Y-108097440D01*
X122918917Y-108053162D01*
X123135041Y-107914090D01*
X123280031Y-107701890D01*
X123331040Y-107450000D01*
X123331040Y-105418000D01*
X123286762Y-105182683D01*
X123147690Y-104966559D01*
X122935490Y-104821569D01*
X122683600Y-104770560D01*
X120956400Y-104770560D01*
X120721083Y-104814838D01*
X120504959Y-104953910D01*
X120359969Y-105166110D01*
X120340768Y-105260927D01*
X120182036Y-105083268D01*
X119654791Y-104829291D01*
X119639026Y-104826642D01*
X119407000Y-104947783D01*
X119153000Y-104947783D01*
X118920974Y-104826642D01*
X118905209Y-104829291D01*
X118377964Y-105083268D01*
X118006461Y-105499069D01*
X117799670Y-105189585D01*
X117313489Y-104864729D01*
X116740000Y-104750655D01*
X116166511Y-104864729D01*
X115680330Y-105189585D01*
X115470000Y-105504366D01*
X115259670Y-105189585D01*
X114773489Y-104864729D01*
X114200000Y-104750655D01*
X113819536Y-104826334D01*
X112818558Y-103825356D01*
X113004655Y-103748462D01*
X113464846Y-103289073D01*
X113714206Y-102688547D01*
X113714774Y-102038306D01*
X113466462Y-101437345D01*
X113007073Y-100977154D01*
X112406547Y-100727794D01*
X111756306Y-100727226D01*
X111155345Y-100975538D01*
X110695154Y-101434927D01*
X110445794Y-102035453D01*
X110445226Y-102685694D01*
X110693538Y-103286655D01*
X110846616Y-103440000D01*
X107414802Y-103440000D01*
X103237401Y-99262599D01*
X102990839Y-99097852D01*
X102700000Y-99040000D01*
X102314802Y-99040000D01*
X100560000Y-97285198D01*
X100560000Y-92439803D01*
X101114802Y-91885001D01*
X102096845Y-91885001D01*
X102026120Y-91990849D01*
X101916887Y-92540000D01*
X102026120Y-93089151D01*
X102337189Y-93554698D01*
X102719275Y-93810000D01*
X102337189Y-94065302D01*
X102026120Y-94530849D01*
X101916887Y-95080000D01*
X102026120Y-95629151D01*
X102337189Y-96094698D01*
X102620000Y-96283667D01*
X102620000Y-96416333D01*
X102337189Y-96605302D01*
X102026120Y-97070849D01*
X101916887Y-97620000D01*
X102026120Y-98169151D01*
X102337189Y-98634698D01*
X102802736Y-98945767D01*
X103351887Y-99055000D01*
X103408113Y-99055000D01*
X103957264Y-98945767D01*
X104422811Y-98634698D01*
X104733880Y-98169151D01*
X104843113Y-97620000D01*
X104733880Y-97070849D01*
X104422811Y-96605302D01*
X104140000Y-96416333D01*
X104140000Y-96283667D01*
X104422811Y-96094698D01*
X104733880Y-95629151D01*
X104843113Y-95080000D01*
X104778688Y-94756114D01*
X106237401Y-93297401D01*
X106402148Y-93050840D01*
X106412778Y-92997401D01*
X106460000Y-92760000D01*
X106460000Y-92540000D01*
X109536887Y-92540000D01*
X109646120Y-93089151D01*
X109957189Y-93554698D01*
X110339275Y-93810000D01*
X109957189Y-94065302D01*
X109646120Y-94530849D01*
X109536887Y-95080000D01*
X109646120Y-95629151D01*
X109957189Y-96094698D01*
X110339275Y-96350000D01*
X109957189Y-96605302D01*
X109646120Y-97070849D01*
X109536887Y-97620000D01*
X109646120Y-98169151D01*
X109957189Y-98634698D01*
X110422736Y-98945767D01*
X110971887Y-99055000D01*
X111028113Y-99055000D01*
X111577264Y-98945767D01*
X112042811Y-98634698D01*
X112353880Y-98169151D01*
X112463113Y-97620000D01*
X112353880Y-97070849D01*
X112042811Y-96605302D01*
X111660725Y-96350000D01*
X112042811Y-96094698D01*
X112353880Y-95629151D01*
X112463113Y-95080000D01*
X112353880Y-94530849D01*
X112042811Y-94065302D01*
X111660725Y-93810000D01*
X112042811Y-93554698D01*
X112353880Y-93089151D01*
X112463113Y-92540000D01*
X112353880Y-91990849D01*
X112042811Y-91525302D01*
X111638297Y-91255014D01*
X111855134Y-91152389D01*
X112231041Y-90737423D01*
X112358769Y-90429039D01*
X121702096Y-90429039D01*
X121862959Y-90817423D01*
X122238866Y-91232389D01*
X122744959Y-91471914D01*
X122967000Y-91350629D01*
X122967000Y-90207000D01*
X123221000Y-90207000D01*
X123221000Y-91350629D01*
X123443041Y-91471914D01*
X123949134Y-91232389D01*
X124325041Y-90817423D01*
X124485904Y-90429039D01*
X124363915Y-90207000D01*
X123221000Y-90207000D01*
X122967000Y-90207000D01*
X121824085Y-90207000D01*
X121702096Y-90429039D01*
X112358769Y-90429039D01*
X112391904Y-90349039D01*
X112269915Y-90127000D01*
X111127000Y-90127000D01*
X111127000Y-90147000D01*
X110873000Y-90147000D01*
X110873000Y-90127000D01*
X109730085Y-90127000D01*
X109608096Y-90349039D01*
X109768959Y-90737423D01*
X110144866Y-91152389D01*
X110361703Y-91255014D01*
X109957189Y-91525302D01*
X109646120Y-91990849D01*
X109536887Y-92540000D01*
X106460000Y-92540000D01*
X106460000Y-89780000D01*
X106402148Y-89489161D01*
X106402148Y-89489160D01*
X106237401Y-89242599D01*
X104778688Y-87783886D01*
X104843113Y-87460000D01*
X104733880Y-86910849D01*
X104422811Y-86445302D01*
X104040725Y-86190000D01*
X104422811Y-85934698D01*
X104733880Y-85469151D01*
X104843113Y-84920000D01*
X104733880Y-84370849D01*
X104422811Y-83905302D01*
X104040725Y-83650000D01*
X104422811Y-83394698D01*
X104733880Y-82929151D01*
X104843113Y-82380000D01*
X109536887Y-82380000D01*
X109646120Y-82929151D01*
X109957189Y-83394698D01*
X110339275Y-83650000D01*
X109957189Y-83905302D01*
X109646120Y-84370849D01*
X109536887Y-84920000D01*
X109646120Y-85469151D01*
X109957189Y-85934698D01*
X110339275Y-86190000D01*
X109957189Y-86445302D01*
X109646120Y-86910849D01*
X109536887Y-87460000D01*
X109646120Y-88009151D01*
X109957189Y-88474698D01*
X110361703Y-88744986D01*
X110144866Y-88847611D01*
X109768959Y-89262577D01*
X109608096Y-89650961D01*
X109730085Y-89873000D01*
X110873000Y-89873000D01*
X110873000Y-89853000D01*
X111127000Y-89853000D01*
X111127000Y-89873000D01*
X112269915Y-89873000D01*
X112391904Y-89650961D01*
X112231041Y-89262577D01*
X111855134Y-88847611D01*
X111638297Y-88744986D01*
X112042811Y-88474698D01*
X112353880Y-88009151D01*
X112463113Y-87460000D01*
X112353880Y-86910849D01*
X112042811Y-86445302D01*
X111660725Y-86190000D01*
X112042811Y-85934698D01*
X112353880Y-85469151D01*
X112463113Y-84920000D01*
X112353880Y-84370849D01*
X112042811Y-83905302D01*
X111660725Y-83650000D01*
X112042811Y-83394698D01*
X112353880Y-82929151D01*
X112463113Y-82380000D01*
X112353880Y-81830849D01*
X112042811Y-81365302D01*
X111577264Y-81054233D01*
X111028113Y-80945000D01*
X110971887Y-80945000D01*
X110422736Y-81054233D01*
X109957189Y-81365302D01*
X109646120Y-81830849D01*
X109536887Y-82380000D01*
X104843113Y-82380000D01*
X104778688Y-82056114D01*
X106574802Y-80260000D01*
X111585198Y-80260000D01*
X119402599Y-88077401D01*
X119649161Y-88242148D01*
X119940000Y-88300000D01*
X121881005Y-88300000D01*
X122051189Y-88554698D01*
X122455703Y-88824986D01*
X122238866Y-88927611D01*
X121862959Y-89342577D01*
X121702096Y-89730961D01*
X121824085Y-89953000D01*
X122967000Y-89953000D01*
X122967000Y-89933000D01*
X123221000Y-89933000D01*
X123221000Y-89953000D01*
X124363915Y-89953000D01*
X124485904Y-89730961D01*
X124325041Y-89342577D01*
X123949134Y-88927611D01*
X123732297Y-88824986D01*
X124136811Y-88554698D01*
X124447880Y-88089151D01*
X124557113Y-87540000D01*
X124447880Y-86990849D01*
X124136811Y-86525302D01*
X123754725Y-86270000D01*
X124136811Y-86014698D01*
X124447880Y-85549151D01*
X124557113Y-85000000D01*
X124447880Y-84450849D01*
X124136811Y-83985302D01*
X123732297Y-83715014D01*
X123949134Y-83612389D01*
X124325041Y-83197423D01*
X124485904Y-82809039D01*
X124363915Y-82587000D01*
X123221000Y-82587000D01*
X123221000Y-82607000D01*
X122967000Y-82607000D01*
X122967000Y-82587000D01*
X121824085Y-82587000D01*
X121702096Y-82809039D01*
X121862959Y-83197423D01*
X122238866Y-83612389D01*
X122455703Y-83715014D01*
X122051189Y-83985302D01*
X121881005Y-84240000D01*
X120948803Y-84240000D01*
X118819764Y-82110961D01*
X121702096Y-82110961D01*
X121824085Y-82333000D01*
X122967000Y-82333000D01*
X122967000Y-81189371D01*
X123221000Y-81189371D01*
X123221000Y-82333000D01*
X124363915Y-82333000D01*
X124485904Y-82110961D01*
X124325041Y-81722577D01*
X123949134Y-81307611D01*
X123443041Y-81068086D01*
X123221000Y-81189371D01*
X122967000Y-81189371D01*
X122744959Y-81068086D01*
X122238866Y-81307611D01*
X121862959Y-81722577D01*
X121702096Y-82110961D01*
X118819764Y-82110961D01*
X114199885Y-77491083D01*
X114268206Y-77326547D01*
X114268774Y-76676306D01*
X114020462Y-76075345D01*
X113561073Y-75615154D01*
X112960547Y-75365794D01*
X112310306Y-75365226D01*
X111709345Y-75613538D01*
X111249154Y-76072927D01*
X111179779Y-76240000D01*
X102667148Y-76240000D01*
X102478462Y-75783345D01*
X102019073Y-75323154D01*
X101418547Y-75073794D01*
X100768306Y-75073226D01*
X100167345Y-75321538D01*
X99707154Y-75780927D01*
X99457794Y-76381453D01*
X99457226Y-77031694D01*
X99705538Y-77632655D01*
X100164927Y-78092846D01*
X100765453Y-78342206D01*
X101415694Y-78342774D01*
X102016655Y-78094462D01*
X102351701Y-77760000D01*
X111179504Y-77760000D01*
X111247538Y-77924655D01*
X111706927Y-78384846D01*
X112307453Y-78634206D01*
X112957694Y-78634774D01*
X113124889Y-78565691D01*
X120096598Y-85537401D01*
X120223432Y-85622148D01*
X120343161Y-85702148D01*
X120634000Y-85760000D01*
X121881005Y-85760000D01*
X122051189Y-86014698D01*
X122433275Y-86270000D01*
X122051189Y-86525302D01*
X121881005Y-86780000D01*
X120254802Y-86780000D01*
X112437401Y-78962599D01*
X112190839Y-78797852D01*
X111900000Y-78740000D01*
X106260000Y-78740000D01*
X105969161Y-78797852D01*
X105722599Y-78962599D01*
X103685102Y-81000096D01*
X103408113Y-80945000D01*
X103351887Y-80945000D01*
X103074898Y-81000096D01*
X102897401Y-80822599D01*
X102650839Y-80657852D01*
X102360000Y-80600000D01*
X97542742Y-80600000D01*
X97519162Y-80474683D01*
X97380090Y-80258559D01*
X97167890Y-80113569D01*
X96916000Y-80062560D01*
X95616000Y-80062560D01*
X95380683Y-80106838D01*
X95164559Y-80245910D01*
X95019569Y-80458110D01*
X94968560Y-80710000D01*
X94968560Y-82010000D01*
X95012838Y-82245317D01*
X95151910Y-82461441D01*
X95364110Y-82606431D01*
X95616000Y-82657440D01*
X96916000Y-82657440D01*
X97151317Y-82613162D01*
X97367441Y-82474090D01*
X97512431Y-82261890D01*
X97541164Y-82120000D01*
X101968604Y-82120000D01*
X101916887Y-82380000D01*
X102026120Y-82929151D01*
X102337189Y-83394698D01*
X102719275Y-83650000D01*
X102337189Y-83905302D01*
X102026120Y-84370849D01*
X101916887Y-84920000D01*
X102026120Y-85469151D01*
X102337189Y-85934698D01*
X102719275Y-86190000D01*
X102337189Y-86445302D01*
X102167005Y-86700000D01*
X100982802Y-86700000D01*
X97819401Y-83536599D01*
X97572839Y-83371852D01*
X97282000Y-83314000D01*
X94040802Y-83314000D01*
X91692000Y-80965198D01*
X91692000Y-78162496D01*
X91856655Y-78094462D01*
X92316846Y-77635073D01*
X92566206Y-77034547D01*
X92566774Y-76384306D01*
X92318462Y-75783345D01*
X91859073Y-75323154D01*
X91258547Y-75073794D01*
X90608306Y-75073226D01*
X90007345Y-75321538D01*
X89547154Y-75780927D01*
X89477779Y-75948000D01*
X87850742Y-75948000D01*
X87827162Y-75822683D01*
X87688090Y-75606559D01*
X87475890Y-75461569D01*
X87224000Y-75410560D01*
X85924000Y-75410560D01*
X85688683Y-75454838D01*
X85472559Y-75593910D01*
X85327569Y-75806110D01*
X85276560Y-76058000D01*
X85276560Y-76220385D01*
X85203611Y-76044271D01*
X84973016Y-75988590D01*
X84253605Y-76708000D01*
X84973016Y-77427410D01*
X85203611Y-77371729D01*
X85276560Y-77162098D01*
X85276560Y-77358000D01*
X85320838Y-77593317D01*
X85459910Y-77809441D01*
X85672110Y-77954431D01*
X85924000Y-78005440D01*
X87224000Y-78005440D01*
X87459317Y-77961162D01*
X87675441Y-77822090D01*
X87820431Y-77609890D01*
X87849164Y-77468000D01*
X89477504Y-77468000D01*
X89545538Y-77632655D01*
X90004927Y-78092846D01*
X90172000Y-78162221D01*
X90172000Y-81280000D01*
X90229852Y-81570839D01*
X90394599Y-81817401D01*
X93188599Y-84611401D01*
X93435161Y-84776148D01*
X93726000Y-84834000D01*
X96967198Y-84834000D01*
X100130599Y-87997401D01*
X100377161Y-88162148D01*
X100668000Y-88220000D01*
X102167005Y-88220000D01*
X102337189Y-88474698D01*
X102719275Y-88730000D01*
X102337189Y-88985302D01*
X102026120Y-89450849D01*
X101916887Y-90000000D01*
X101981312Y-90323886D01*
X101940197Y-90365001D01*
X98059803Y-90365001D01*
X94309283Y-86614481D01*
X94980777Y-86614481D01*
X95175995Y-87086943D01*
X95537155Y-87448735D01*
X96009276Y-87644777D01*
X96520481Y-87645223D01*
X96992943Y-87450005D01*
X97354735Y-87088845D01*
X97550777Y-86616724D01*
X97551223Y-86105519D01*
X97356005Y-85633057D01*
X96994845Y-85271265D01*
X96522724Y-85075223D01*
X96011519Y-85074777D01*
X95539057Y-85269995D01*
X95177265Y-85631155D01*
X94981223Y-86103276D01*
X94980777Y-86614481D01*
X94309283Y-86614481D01*
X90398688Y-82703886D01*
X90463113Y-82380000D01*
X90353880Y-81830849D01*
X90042811Y-81365302D01*
X89577264Y-81054233D01*
X89028113Y-80945000D01*
X88971887Y-80945000D01*
X88422736Y-81054233D01*
X87957189Y-81365302D01*
X87787005Y-81620000D01*
X86594802Y-81620000D01*
X82581818Y-77607016D01*
X83354590Y-77607016D01*
X83410271Y-77837611D01*
X83893078Y-78005622D01*
X84403428Y-77976083D01*
X84737729Y-77837611D01*
X84793410Y-77607016D01*
X84074000Y-76887605D01*
X83354590Y-77607016D01*
X82581818Y-77607016D01*
X81501880Y-76527078D01*
X82776378Y-76527078D01*
X82805917Y-77037428D01*
X82944389Y-77371729D01*
X83174984Y-77427410D01*
X83894395Y-76708000D01*
X83174984Y-75988590D01*
X82944389Y-76044271D01*
X82776378Y-76527078D01*
X81501880Y-76527078D01*
X81174802Y-76200000D01*
X81565818Y-75808984D01*
X83354590Y-75808984D01*
X84074000Y-76528395D01*
X84793410Y-75808984D01*
X84737729Y-75578389D01*
X84254922Y-75410378D01*
X83744572Y-75439917D01*
X83410271Y-75578389D01*
X83354590Y-75808984D01*
X81565818Y-75808984D01*
X82213801Y-75161001D01*
X83098999Y-75161001D01*
X83389838Y-75103149D01*
X83604076Y-74960000D01*
X127499198Y-74960000D01*
X128536469Y-75997271D01*
X128467569Y-76098110D01*
X128416560Y-76350000D01*
X128416560Y-76512385D01*
X128343611Y-76336271D01*
X128113016Y-76280590D01*
X127393605Y-77000000D01*
X128113016Y-77719410D01*
X128343611Y-77663729D01*
X128416560Y-77454098D01*
X128416560Y-77650000D01*
X128460838Y-77885317D01*
X128599910Y-78101441D01*
X128812110Y-78246431D01*
X128954000Y-78275164D01*
X128954000Y-81460000D01*
X129011852Y-81750839D01*
X129176599Y-81997401D01*
X129315312Y-82136114D01*
X129250887Y-82460000D01*
X129251405Y-82462603D01*
X124687818Y-77899016D01*
X126494590Y-77899016D01*
X126550271Y-78129611D01*
X127033078Y-78297622D01*
X127543428Y-78268083D01*
X127877729Y-78129611D01*
X127933410Y-77899016D01*
X127214000Y-77179605D01*
X126494590Y-77899016D01*
X124687818Y-77899016D01*
X124336412Y-77547610D01*
X124428206Y-77326547D01*
X124428649Y-76819078D01*
X125916378Y-76819078D01*
X125945917Y-77329428D01*
X126084389Y-77663729D01*
X126314984Y-77719410D01*
X127034395Y-77000000D01*
X126314984Y-76280590D01*
X126084389Y-76336271D01*
X125916378Y-76819078D01*
X124428649Y-76819078D01*
X124428774Y-76676306D01*
X124191056Y-76100984D01*
X126494590Y-76100984D01*
X127214000Y-76820395D01*
X127933410Y-76100984D01*
X127877729Y-75870389D01*
X127394922Y-75702378D01*
X126884572Y-75731917D01*
X126550271Y-75870389D01*
X126494590Y-76100984D01*
X124191056Y-76100984D01*
X124180462Y-76075345D01*
X123721073Y-75615154D01*
X123120547Y-75365794D01*
X122470306Y-75365226D01*
X121869345Y-75613538D01*
X121409154Y-76072927D01*
X121159794Y-76673453D01*
X121159226Y-77323694D01*
X121407538Y-77924655D01*
X121866927Y-78384846D01*
X122467453Y-78634206D01*
X123117694Y-78634774D01*
X123228279Y-78589081D01*
X129315312Y-84676114D01*
X129250887Y-85000000D01*
X129315312Y-85323886D01*
X126362599Y-88276599D01*
X126197852Y-88523161D01*
X126140000Y-88814000D01*
X126140000Y-107785198D01*
X119985198Y-113940000D01*
X116900000Y-113940000D01*
X116609161Y-113997852D01*
X116362599Y-114162599D01*
X111122599Y-119402599D01*
X110957852Y-119649161D01*
X110900000Y-119940000D01*
X110900000Y-120229352D01*
X110600330Y-120429585D01*
X110390000Y-120744366D01*
X110179670Y-120429585D01*
X109693489Y-120104729D01*
X109120000Y-119990655D01*
X108546511Y-120104729D01*
X108060330Y-120429585D01*
X107850000Y-120744366D01*
X107639670Y-120429585D01*
X107153489Y-120104729D01*
X106580000Y-119990655D01*
X106006511Y-120104729D01*
X105520330Y-120429585D01*
X105310000Y-120744366D01*
X105099670Y-120429585D01*
X104613489Y-120104729D01*
X104040000Y-119990655D01*
X103466511Y-120104729D01*
X102980330Y-120429585D01*
X102770000Y-120744366D01*
X102559670Y-120429585D01*
X102073489Y-120104729D01*
X101500000Y-119990655D01*
X100926511Y-120104729D01*
X100440330Y-120429585D01*
X100230000Y-120744366D01*
X100019670Y-120429585D01*
X99533489Y-120104729D01*
X98960000Y-119990655D01*
X98386511Y-120104729D01*
X97900330Y-120429585D01*
X97690000Y-120744366D01*
X97479670Y-120429585D01*
X96993489Y-120104729D01*
X96420000Y-119990655D01*
X95846511Y-120104729D01*
X95360330Y-120429585D01*
X95150000Y-120744366D01*
X94939670Y-120429585D01*
X94453489Y-120104729D01*
X93880000Y-119990655D01*
X93306511Y-120104729D01*
X92820330Y-120429585D01*
X92610000Y-120744366D01*
X92399670Y-120429585D01*
X91913489Y-120104729D01*
X91340000Y-119990655D01*
X90766511Y-120104729D01*
X90280330Y-120429585D01*
X90070000Y-120744366D01*
X89859670Y-120429585D01*
X89373489Y-120104729D01*
X88800000Y-119990655D01*
X88226511Y-120104729D01*
X87740330Y-120429585D01*
X87530000Y-120744366D01*
X87319670Y-120429585D01*
X86833489Y-120104729D01*
X86260000Y-119990655D01*
X85686511Y-120104729D01*
X85200330Y-120429585D01*
X84875474Y-120915766D01*
X84761400Y-121489255D01*
X84761400Y-121858745D01*
X84875474Y-122432234D01*
X85200330Y-122918415D01*
X85686511Y-123243271D01*
X86260000Y-123357345D01*
X86833489Y-123243271D01*
X87319670Y-122918415D01*
X87530000Y-122603634D01*
X87740330Y-122918415D01*
X88226511Y-123243271D01*
X88800000Y-123357345D01*
X89373489Y-123243271D01*
X89859670Y-122918415D01*
X90070000Y-122603634D01*
X90280330Y-122918415D01*
X90766511Y-123243271D01*
X91340000Y-123357345D01*
X91913489Y-123243271D01*
X92399670Y-122918415D01*
X92610000Y-122603634D01*
X92820330Y-122918415D01*
X93306511Y-123243271D01*
X93880000Y-123357345D01*
X94453489Y-123243271D01*
X94939670Y-122918415D01*
X95150000Y-122603634D01*
X95360330Y-122918415D01*
X95846511Y-123243271D01*
X96420000Y-123357345D01*
X96993489Y-123243271D01*
X97479670Y-122918415D01*
X97690000Y-122603634D01*
X97900330Y-122918415D01*
X98386511Y-123243271D01*
X98960000Y-123357345D01*
X99533489Y-123243271D01*
X100019670Y-122918415D01*
X100230000Y-122603634D01*
X100440330Y-122918415D01*
X100926511Y-123243271D01*
X101500000Y-123357345D01*
X102073489Y-123243271D01*
X102559670Y-122918415D01*
X102770000Y-122603634D01*
X102980330Y-122918415D01*
X103466511Y-123243271D01*
X104040000Y-123357345D01*
X104613489Y-123243271D01*
X105099670Y-122918415D01*
X105310000Y-122603634D01*
X105520330Y-122918415D01*
X106006511Y-123243271D01*
X106580000Y-123357345D01*
X107153489Y-123243271D01*
X107639670Y-122918415D01*
X107850000Y-122603634D01*
X108060330Y-122918415D01*
X108546511Y-123243271D01*
X109120000Y-123357345D01*
X109693489Y-123243271D01*
X110179670Y-122918415D01*
X110390000Y-122603634D01*
X110600330Y-122918415D01*
X111086511Y-123243271D01*
X111660000Y-123357345D01*
X112233489Y-123243271D01*
X112719670Y-122918415D01*
X112930000Y-122603634D01*
X113140330Y-122918415D01*
X113626511Y-123243271D01*
X114200000Y-123357345D01*
X114773489Y-123243271D01*
X115259670Y-122918415D01*
X115470000Y-122603634D01*
X115680330Y-122918415D01*
X116166511Y-123243271D01*
X116740000Y-123357345D01*
X117313489Y-123243271D01*
X117799670Y-122918415D01*
X118010000Y-122603634D01*
X118220330Y-122918415D01*
X118706511Y-123243271D01*
X119280000Y-123357345D01*
X119853489Y-123243271D01*
X120339670Y-122918415D01*
X120349243Y-122904087D01*
X120353238Y-122925317D01*
X120492310Y-123141441D01*
X120704510Y-123286431D01*
X120956400Y-123337440D01*
X122683600Y-123337440D01*
X122918917Y-123293162D01*
X123135041Y-123154090D01*
X123280031Y-122941890D01*
X123331040Y-122690000D01*
X123331040Y-120658000D01*
X123286762Y-120422683D01*
X123147690Y-120206559D01*
X122935490Y-120061569D01*
X122683600Y-120010560D01*
X120956400Y-120010560D01*
X120721083Y-120054838D01*
X120504959Y-120193910D01*
X120359969Y-120406110D01*
X120351600Y-120447439D01*
X120339670Y-120429585D01*
X119853489Y-120104729D01*
X119280000Y-119990655D01*
X118706511Y-120104729D01*
X118220330Y-120429585D01*
X118010000Y-120744366D01*
X117799670Y-120429585D01*
X117313489Y-120104729D01*
X116740000Y-119990655D01*
X116166511Y-120104729D01*
X115680330Y-120429585D01*
X115470000Y-120744366D01*
X115259670Y-120429585D01*
X114773489Y-120104729D01*
X114200000Y-119990655D01*
X113626511Y-120104729D01*
X113140330Y-120429585D01*
X112930000Y-120744366D01*
X112719670Y-120429585D01*
X112435256Y-120239546D01*
X114846630Y-117828172D01*
X124532538Y-117828172D01*
X124937709Y-118808761D01*
X125687293Y-119559655D01*
X126667173Y-119966536D01*
X127728172Y-119967462D01*
X128708761Y-119562291D01*
X129459655Y-118812707D01*
X129866536Y-117832827D01*
X129867462Y-116771828D01*
X129462291Y-115791239D01*
X128712707Y-115040345D01*
X127732827Y-114633464D01*
X126671828Y-114632538D01*
X125691239Y-115037709D01*
X124940345Y-115787293D01*
X124533464Y-116767173D01*
X124532538Y-117828172D01*
X114846630Y-117828172D01*
X117214802Y-115460000D01*
X120300000Y-115460000D01*
X120590839Y-115402148D01*
X120837401Y-115237401D01*
X127437401Y-108637401D01*
X127602148Y-108390839D01*
X127660000Y-108100000D01*
X127660000Y-89128802D01*
X129251405Y-87537397D01*
X129250887Y-87540000D01*
X129360120Y-88089151D01*
X129671189Y-88554698D01*
X130053275Y-88810000D01*
X129671189Y-89065302D01*
X129360120Y-89530849D01*
X129250887Y-90080000D01*
X129360120Y-90629151D01*
X129671189Y-91094698D01*
X130136736Y-91405767D01*
X130685887Y-91515000D01*
X130742113Y-91515000D01*
X131291264Y-91405767D01*
X131756811Y-91094698D01*
X132067880Y-90629151D01*
X132177113Y-90080000D01*
X132067880Y-89530849D01*
X131756811Y-89065302D01*
X131374725Y-88810000D01*
X131756811Y-88554698D01*
X132067880Y-88089151D01*
X132177113Y-87540000D01*
X132067880Y-86990849D01*
X131756811Y-86525302D01*
X131374725Y-86270000D01*
X131756811Y-86014698D01*
X132067880Y-85549151D01*
X132177113Y-85000000D01*
X132067880Y-84450849D01*
X131756811Y-83985302D01*
X131374725Y-83730000D01*
X131756811Y-83474698D01*
X132067880Y-83009151D01*
X132177113Y-82460000D01*
X132067880Y-81910849D01*
X131756811Y-81445302D01*
X131291264Y-81134233D01*
X130742113Y-81025000D01*
X130685887Y-81025000D01*
X130474000Y-81067147D01*
X130474000Y-78276742D01*
X130599317Y-78253162D01*
X130815441Y-78114090D01*
X130960431Y-77901890D01*
X131011440Y-77650000D01*
X131011440Y-76350000D01*
X130967162Y-76114683D01*
X130828090Y-75898559D01*
X130615890Y-75753569D01*
X130364000Y-75702560D01*
X130344920Y-75702560D01*
X130251401Y-75562599D01*
X128351401Y-73662599D01*
X128104839Y-73497852D01*
X127814000Y-73440000D01*
X83300000Y-73440000D01*
X83009160Y-73497852D01*
X82794923Y-73641001D01*
X81898999Y-73641001D01*
X81608160Y-73698853D01*
X81361598Y-73863600D01*
X79862599Y-75362599D01*
X79697852Y-75609161D01*
X79640000Y-75900000D01*
X79640000Y-76500000D01*
X79697852Y-76790839D01*
X79862599Y-77037401D01*
X85742599Y-82917401D01*
X85989161Y-83082148D01*
X86280000Y-83140000D01*
X87787005Y-83140000D01*
X87957189Y-83394698D01*
X88339275Y-83650000D01*
X87957189Y-83905302D01*
X87646120Y-84370849D01*
X87536887Y-84920000D01*
X87601312Y-85243886D01*
X84762599Y-88082599D01*
X84597852Y-88329161D01*
X84540000Y-88620000D01*
X84540000Y-90237537D01*
X84507808Y-90269673D01*
X84365162Y-90613201D01*
X84364838Y-90985167D01*
X84506883Y-91328943D01*
X84769673Y-91592192D01*
X85113201Y-91734838D01*
X85485167Y-91735162D01*
X85828943Y-91593117D01*
X86092192Y-91330327D01*
X86234838Y-90986799D01*
X86235162Y-90614833D01*
X86093117Y-90271057D01*
X86060000Y-90237882D01*
X86060000Y-88934802D01*
X87537405Y-87457397D01*
X87536887Y-87460000D01*
X87646120Y-88009151D01*
X87957189Y-88474698D01*
X88339275Y-88730000D01*
X87957189Y-88985302D01*
X87646120Y-89450849D01*
X87536887Y-90000000D01*
X87646120Y-90549151D01*
X87957189Y-91014698D01*
X88339275Y-91270000D01*
X87957189Y-91525302D01*
X87646120Y-91990849D01*
X87536887Y-92540000D01*
X87646120Y-93089151D01*
X87957189Y-93554698D01*
X88339275Y-93810000D01*
X87957189Y-94065302D01*
X87646120Y-94530849D01*
X87536887Y-95080000D01*
X87646120Y-95629151D01*
X87957189Y-96094698D01*
X88339275Y-96350000D01*
X87957189Y-96605302D01*
X87646120Y-97070849D01*
X87536887Y-97620000D01*
X87646120Y-98169151D01*
X87957189Y-98634698D01*
X88422736Y-98945767D01*
X88971887Y-99055000D01*
X89028113Y-99055000D01*
X89577264Y-98945767D01*
X90042811Y-98634698D01*
X90353880Y-98169151D01*
X90463113Y-97620000D01*
X90353880Y-97070849D01*
X90042811Y-96605302D01*
X89660725Y-96350000D01*
X90042811Y-96094698D01*
X90353880Y-95629151D01*
X90463113Y-95080000D01*
X90353880Y-94530849D01*
X90042811Y-94065302D01*
X89660725Y-93810000D01*
X90042811Y-93554698D01*
X90353880Y-93089151D01*
X90463113Y-92540000D01*
X90353880Y-91990849D01*
X90042811Y-91525302D01*
X89660725Y-91270000D01*
X90042811Y-91014698D01*
X90353880Y-90549151D01*
X90463113Y-90000000D01*
X90353880Y-89450849D01*
X90042811Y-88985302D01*
X89660725Y-88730000D01*
X90042811Y-88474698D01*
X90353880Y-88009151D01*
X90463113Y-87460000D01*
X90353880Y-86910849D01*
X90042811Y-86445302D01*
X89660725Y-86190000D01*
X90042811Y-85934698D01*
X90353880Y-85469151D01*
X90463113Y-84920000D01*
X90462595Y-84917397D01*
X97207600Y-91662402D01*
X97454162Y-91827149D01*
X97745001Y-91885001D01*
X99087739Y-91885001D01*
X99040000Y-92125001D01*
X99040000Y-97600000D01*
X99097852Y-97890839D01*
X99262599Y-98137401D01*
X101462599Y-100337401D01*
X101709161Y-100502148D01*
X102000000Y-100560000D01*
X102385198Y-100560000D01*
X102770596Y-100945398D01*
X102246547Y-100727794D01*
X101596306Y-100727226D01*
X100995345Y-100975538D01*
X100535154Y-101434927D01*
X100465779Y-101602000D01*
X95772802Y-101602000D01*
X96739680Y-100635122D01*
X96785167Y-100635162D01*
X97128943Y-100493117D01*
X97392192Y-100230327D01*
X97534838Y-99886799D01*
X97535162Y-99514833D01*
X97393117Y-99171057D01*
X97130327Y-98907808D01*
X96786799Y-98765162D01*
X96414833Y-98764838D01*
X96071057Y-98906883D01*
X95807808Y-99169673D01*
X95665162Y-99513201D01*
X95665121Y-99560076D01*
X93623198Y-101602000D01*
X91534496Y-101602000D01*
X91466462Y-101437345D01*
X91007073Y-100977154D01*
X90406547Y-100727794D01*
X89756306Y-100727226D01*
X89155345Y-100975538D01*
X88695154Y-101434927D01*
X88445794Y-102035453D01*
X88445226Y-102685694D01*
X88693538Y-103286655D01*
X89152927Y-103746846D01*
X89753453Y-103996206D01*
X90403694Y-103996774D01*
X91004655Y-103748462D01*
X91464846Y-103289073D01*
X91534221Y-103122000D01*
X100465504Y-103122000D01*
X100533538Y-103286655D01*
X100992927Y-103746846D01*
X101593453Y-103996206D01*
X102243694Y-103996774D01*
X102844655Y-103748462D01*
X103304846Y-103289073D01*
X103554206Y-102688547D01*
X103554774Y-102038306D01*
X103337387Y-101512189D01*
X106562599Y-104737401D01*
X106583467Y-104751345D01*
X106580000Y-104750655D01*
X106006511Y-104864729D01*
X105520330Y-105189585D01*
X105310000Y-105504366D01*
X105099670Y-105189585D01*
X104613489Y-104864729D01*
X104040000Y-104750655D01*
X103466511Y-104864729D01*
X102980330Y-105189585D01*
X102770000Y-105504366D01*
X102559670Y-105189585D01*
X102073489Y-104864729D01*
X101500000Y-104750655D01*
X100926511Y-104864729D01*
X100440330Y-105189585D01*
X100230000Y-105504366D01*
X100019670Y-105189585D01*
X99533489Y-104864729D01*
X98960000Y-104750655D01*
X98386511Y-104864729D01*
X97900330Y-105189585D01*
X97690000Y-105504366D01*
X97479670Y-105189585D01*
X96993489Y-104864729D01*
X96420000Y-104750655D01*
X95846511Y-104864729D01*
X95360330Y-105189585D01*
X95150000Y-105504366D01*
X94939670Y-105189585D01*
X94453489Y-104864729D01*
X93880000Y-104750655D01*
X93306511Y-104864729D01*
X92820330Y-105189585D01*
X92610000Y-105504366D01*
X92399670Y-105189585D01*
X91913489Y-104864729D01*
X91340000Y-104750655D01*
X90766511Y-104864729D01*
X90280330Y-105189585D01*
X90070000Y-105504366D01*
X89859670Y-105189585D01*
X89373489Y-104864729D01*
X88800000Y-104750655D01*
X88226511Y-104864729D01*
X87740330Y-105189585D01*
X87530000Y-105504366D01*
X87319670Y-105189585D01*
X86833489Y-104864729D01*
X86260000Y-104750655D01*
X85686511Y-104864729D01*
X85200330Y-105189585D01*
X84875474Y-105675766D01*
X84761400Y-106249255D01*
X84761400Y-106618745D01*
X84875474Y-107192234D01*
X85200330Y-107678415D01*
X85686511Y-108003271D01*
X86260000Y-108117345D01*
X86833489Y-108003271D01*
X87319670Y-107678415D01*
X87530000Y-107363634D01*
X87740330Y-107678415D01*
X88040000Y-107878648D01*
X88040000Y-107885198D01*
X87185198Y-108740000D01*
X79514802Y-108740000D01*
X74760000Y-103985198D01*
X74760000Y-103514163D01*
X78947443Y-103514163D01*
X79046042Y-103780965D01*
X79655582Y-104007401D01*
X80305377Y-103983341D01*
X80793958Y-103780965D01*
X80892557Y-103514163D01*
X79920000Y-102541605D01*
X78947443Y-103514163D01*
X74760000Y-103514163D01*
X74760000Y-102097582D01*
X78274599Y-102097582D01*
X78298659Y-102747377D01*
X78501035Y-103235958D01*
X78767837Y-103334557D01*
X79740395Y-102362000D01*
X80099605Y-102362000D01*
X81072163Y-103334557D01*
X81338965Y-103235958D01*
X81565401Y-102626418D01*
X81541341Y-101976623D01*
X81338965Y-101488042D01*
X81072163Y-101389443D01*
X80099605Y-102362000D01*
X79740395Y-102362000D01*
X78767837Y-101389443D01*
X78501035Y-101488042D01*
X78274599Y-102097582D01*
X74760000Y-102097582D01*
X74760000Y-101209837D01*
X78947443Y-101209837D01*
X79920000Y-102182395D01*
X80892557Y-101209837D01*
X80793958Y-100943035D01*
X80184418Y-100716599D01*
X79534623Y-100740659D01*
X79046042Y-100943035D01*
X78947443Y-101209837D01*
X74760000Y-101209837D01*
X74760000Y-100534496D01*
X74924655Y-100466462D01*
X75384846Y-100007073D01*
X75634206Y-99406547D01*
X75634774Y-98756306D01*
X75386462Y-98155345D01*
X75200481Y-97969039D01*
X79988096Y-97969039D01*
X80148959Y-98357423D01*
X80524866Y-98772389D01*
X81030959Y-99011914D01*
X81253000Y-98890629D01*
X81253000Y-97747000D01*
X81507000Y-97747000D01*
X81507000Y-98890629D01*
X81729041Y-99011914D01*
X82235134Y-98772389D01*
X82611041Y-98357423D01*
X82771904Y-97969039D01*
X82649915Y-97747000D01*
X81507000Y-97747000D01*
X81253000Y-97747000D01*
X80110085Y-97747000D01*
X79988096Y-97969039D01*
X75200481Y-97969039D01*
X74927073Y-97695154D01*
X74326547Y-97445794D01*
X73676306Y-97445226D01*
X73075345Y-97693538D01*
X72615154Y-98152927D01*
X72545779Y-98320000D01*
X70920000Y-98320000D01*
X70629161Y-98377852D01*
X70382599Y-98542599D01*
X65162599Y-103762599D01*
X64997852Y-104009161D01*
X64940000Y-104300000D01*
X64940000Y-111785198D01*
X64774809Y-111950389D01*
X64884563Y-83140000D01*
X80167005Y-83140000D01*
X80337189Y-83394698D01*
X80719275Y-83650000D01*
X80337189Y-83905302D01*
X80026120Y-84370849D01*
X79916887Y-84920000D01*
X79981312Y-85243886D01*
X77065198Y-88160000D01*
X75454496Y-88160000D01*
X75386462Y-87995345D01*
X74927073Y-87535154D01*
X74326547Y-87285794D01*
X73676306Y-87285226D01*
X73075345Y-87533538D01*
X72615154Y-87992927D01*
X72365794Y-88593453D01*
X72365226Y-89243694D01*
X72613538Y-89844655D01*
X73072927Y-90304846D01*
X73673453Y-90554206D01*
X74323694Y-90554774D01*
X74924655Y-90306462D01*
X75384846Y-89847073D01*
X75454221Y-89680000D01*
X77380000Y-89680000D01*
X77670839Y-89622148D01*
X77917401Y-89457401D01*
X79917405Y-87457397D01*
X79916887Y-87460000D01*
X80026120Y-88009151D01*
X80337189Y-88474698D01*
X80719275Y-88730000D01*
X80337189Y-88985302D01*
X80026120Y-89450849D01*
X79916887Y-90000000D01*
X80026120Y-90549151D01*
X80337189Y-91014698D01*
X80719275Y-91270000D01*
X80337189Y-91525302D01*
X80026120Y-91990849D01*
X79916887Y-92540000D01*
X80026120Y-93089151D01*
X80337189Y-93554698D01*
X80719275Y-93810000D01*
X80337189Y-94065302D01*
X80026120Y-94530849D01*
X79916887Y-95080000D01*
X80026120Y-95629151D01*
X80337189Y-96094698D01*
X80741703Y-96364986D01*
X80524866Y-96467611D01*
X80148959Y-96882577D01*
X79988096Y-97270961D01*
X80110085Y-97493000D01*
X81253000Y-97493000D01*
X81253000Y-97473000D01*
X81507000Y-97473000D01*
X81507000Y-97493000D01*
X82649915Y-97493000D01*
X82771904Y-97270961D01*
X82611041Y-96882577D01*
X82235134Y-96467611D01*
X82018297Y-96364986D01*
X82422811Y-96094698D01*
X82733880Y-95629151D01*
X82843113Y-95080000D01*
X82733880Y-94530849D01*
X82422811Y-94065302D01*
X82040725Y-93810000D01*
X82422811Y-93554698D01*
X82733880Y-93089151D01*
X82843113Y-92540000D01*
X82733880Y-91990849D01*
X82422811Y-91525302D01*
X82040725Y-91270000D01*
X82422811Y-91014698D01*
X82733880Y-90549151D01*
X82843113Y-90000000D01*
X82733880Y-89450849D01*
X82422811Y-88985302D01*
X82040725Y-88730000D01*
X82422811Y-88474698D01*
X82733880Y-88009151D01*
X82843113Y-87460000D01*
X82733880Y-86910849D01*
X82422811Y-86445302D01*
X82040725Y-86190000D01*
X82422811Y-85934698D01*
X82592995Y-85680000D01*
X83805198Y-85680000D01*
X84064878Y-85939680D01*
X84064838Y-85985167D01*
X84206883Y-86328943D01*
X84469673Y-86592192D01*
X84813201Y-86734838D01*
X85185167Y-86735162D01*
X85528943Y-86593117D01*
X85792192Y-86330327D01*
X85934838Y-85986799D01*
X85935162Y-85614833D01*
X85793117Y-85271057D01*
X85530327Y-85007808D01*
X85186799Y-84865162D01*
X85139923Y-84865121D01*
X84657401Y-84382599D01*
X84410839Y-84217852D01*
X84120000Y-84160000D01*
X82592995Y-84160000D01*
X82422811Y-83905302D01*
X82040725Y-83650000D01*
X82422811Y-83394698D01*
X82733880Y-82929151D01*
X82843113Y-82380000D01*
X82733880Y-81830849D01*
X82422811Y-81365302D01*
X81957264Y-81054233D01*
X81408113Y-80945000D01*
X81351887Y-80945000D01*
X80802736Y-81054233D01*
X80337189Y-81365302D01*
X80167005Y-81620000D01*
X64890353Y-81620000D01*
X64921565Y-73427000D01*
X132712900Y-73427000D01*
X132673100Y-123773000D01*
X132673100Y-123773000D01*
G37*
X132673100Y-123773000D02*
X64729770Y-123773000D01*
X64766589Y-114108213D01*
X66237401Y-112637401D01*
X66402148Y-112390839D01*
X66460000Y-112100000D01*
X66460000Y-104614802D01*
X71234802Y-99840000D01*
X72545504Y-99840000D01*
X72613538Y-100004655D01*
X73072927Y-100464846D01*
X73240000Y-100534221D01*
X73240000Y-104300000D01*
X73297852Y-104590839D01*
X73462599Y-104837401D01*
X78662599Y-110037401D01*
X78909161Y-110202148D01*
X79200000Y-110260000D01*
X87500000Y-110260000D01*
X87790839Y-110202148D01*
X88037401Y-110037401D01*
X89337401Y-108737401D01*
X89502148Y-108490839D01*
X89560000Y-108200000D01*
X89560000Y-107878648D01*
X89859670Y-107678415D01*
X90070000Y-107363634D01*
X90280330Y-107678415D01*
X90766511Y-108003271D01*
X91340000Y-108117345D01*
X91913489Y-108003271D01*
X92399670Y-107678415D01*
X92610000Y-107363634D01*
X92820330Y-107678415D01*
X93306511Y-108003271D01*
X93880000Y-108117345D01*
X94453489Y-108003271D01*
X94939670Y-107678415D01*
X95150000Y-107363634D01*
X95360330Y-107678415D01*
X95846511Y-108003271D01*
X96420000Y-108117345D01*
X96993489Y-108003271D01*
X97479670Y-107678415D01*
X97690000Y-107363634D01*
X97900330Y-107678415D01*
X98386511Y-108003271D01*
X98960000Y-108117345D01*
X99533489Y-108003271D01*
X100019670Y-107678415D01*
X100230000Y-107363634D01*
X100440330Y-107678415D01*
X100926511Y-108003271D01*
X101500000Y-108117345D01*
X102073489Y-108003271D01*
X102559670Y-107678415D01*
X102770000Y-107363634D01*
X102980330Y-107678415D01*
X103466511Y-108003271D01*
X104040000Y-108117345D01*
X104613489Y-108003271D01*
X105099670Y-107678415D01*
X105310000Y-107363634D01*
X105520330Y-107678415D01*
X106006511Y-108003271D01*
X106580000Y-108117345D01*
X107153489Y-108003271D01*
X107639670Y-107678415D01*
X107850000Y-107363634D01*
X108060330Y-107678415D01*
X108546511Y-108003271D01*
X109120000Y-108117345D01*
X109693489Y-108003271D01*
X110179670Y-107678415D01*
X110390000Y-107363634D01*
X110600330Y-107678415D01*
X111086511Y-108003271D01*
X111660000Y-108117345D01*
X112233489Y-108003271D01*
X112719670Y-107678415D01*
X112930000Y-107363634D01*
X113140330Y-107678415D01*
X113626511Y-108003271D01*
X114200000Y-108117345D01*
X114773489Y-108003271D01*
X115259670Y-107678415D01*
X115470000Y-107363634D01*
X115680330Y-107678415D01*
X116166511Y-108003271D01*
X116740000Y-108117345D01*
X117313489Y-108003271D01*
X117799670Y-107678415D01*
X118006461Y-107368931D01*
X118377964Y-107784732D01*
X118905209Y-108038709D01*
X118920974Y-108041358D01*
X119153000Y-107920217D01*
X119153000Y-106561000D01*
X119133000Y-106561000D01*
X119133000Y-106307000D01*
X119153000Y-106307000D01*
X119153000Y-104947783D01*
X119407000Y-104947783D01*
X119407000Y-106307000D01*
X119427000Y-106307000D01*
X119427000Y-106561000D01*
X119407000Y-106561000D01*
X119407000Y-107920217D01*
X119639026Y-108041358D01*
X119654791Y-108038709D01*
X120182036Y-107784732D01*
X120338907Y-107609155D01*
X120353238Y-107685317D01*
X120492310Y-107901441D01*
X120704510Y-108046431D01*
X120956400Y-108097440D01*
X122683600Y-108097440D01*
X122918917Y-108053162D01*
X123135041Y-107914090D01*
X123280031Y-107701890D01*
X123331040Y-107450000D01*
X123331040Y-105418000D01*
X123286762Y-105182683D01*
X123147690Y-104966559D01*
X122935490Y-104821569D01*
X122683600Y-104770560D01*
X120956400Y-104770560D01*
X120721083Y-104814838D01*
X120504959Y-104953910D01*
X120359969Y-105166110D01*
X120340768Y-105260927D01*
X120182036Y-105083268D01*
X119654791Y-104829291D01*
X119639026Y-104826642D01*
X119407000Y-104947783D01*
X119153000Y-104947783D01*
X118920974Y-104826642D01*
X118905209Y-104829291D01*
X118377964Y-105083268D01*
X118006461Y-105499069D01*
X117799670Y-105189585D01*
X117313489Y-104864729D01*
X116740000Y-104750655D01*
X116166511Y-104864729D01*
X115680330Y-105189585D01*
X115470000Y-105504366D01*
X115259670Y-105189585D01*
X114773489Y-104864729D01*
X114200000Y-104750655D01*
X113819536Y-104826334D01*
X112818558Y-103825356D01*
X113004655Y-103748462D01*
X113464846Y-103289073D01*
X113714206Y-102688547D01*
X113714774Y-102038306D01*
X113466462Y-101437345D01*
X113007073Y-100977154D01*
X112406547Y-100727794D01*
X111756306Y-100727226D01*
X111155345Y-100975538D01*
X110695154Y-101434927D01*
X110445794Y-102035453D01*
X110445226Y-102685694D01*
X110693538Y-103286655D01*
X110846616Y-103440000D01*
X107414802Y-103440000D01*
X103237401Y-99262599D01*
X102990839Y-99097852D01*
X102700000Y-99040000D01*
X102314802Y-99040000D01*
X100560000Y-97285198D01*
X100560000Y-92439803D01*
X101114802Y-91885001D01*
X102096845Y-91885001D01*
X102026120Y-91990849D01*
X101916887Y-92540000D01*
X102026120Y-93089151D01*
X102337189Y-93554698D01*
X102719275Y-93810000D01*
X102337189Y-94065302D01*
X102026120Y-94530849D01*
X101916887Y-95080000D01*
X102026120Y-95629151D01*
X102337189Y-96094698D01*
X102620000Y-96283667D01*
X102620000Y-96416333D01*
X102337189Y-96605302D01*
X102026120Y-97070849D01*
X101916887Y-97620000D01*
X102026120Y-98169151D01*
X102337189Y-98634698D01*
X102802736Y-98945767D01*
X103351887Y-99055000D01*
X103408113Y-99055000D01*
X103957264Y-98945767D01*
X104422811Y-98634698D01*
X104733880Y-98169151D01*
X104843113Y-97620000D01*
X104733880Y-97070849D01*
X104422811Y-96605302D01*
X104140000Y-96416333D01*
X104140000Y-96283667D01*
X104422811Y-96094698D01*
X104733880Y-95629151D01*
X104843113Y-95080000D01*
X104778688Y-94756114D01*
X106237401Y-93297401D01*
X106402148Y-93050840D01*
X106412778Y-92997401D01*
X106460000Y-92760000D01*
X106460000Y-92540000D01*
X109536887Y-92540000D01*
X109646120Y-93089151D01*
X109957189Y-93554698D01*
X110339275Y-93810000D01*
X109957189Y-94065302D01*
X109646120Y-94530849D01*
X109536887Y-95080000D01*
X109646120Y-95629151D01*
X109957189Y-96094698D01*
X110339275Y-96350000D01*
X109957189Y-96605302D01*
X109646120Y-97070849D01*
X109536887Y-97620000D01*
X109646120Y-98169151D01*
X109957189Y-98634698D01*
X110422736Y-98945767D01*
X110971887Y-99055000D01*
X111028113Y-99055000D01*
X111577264Y-98945767D01*
X112042811Y-98634698D01*
X112353880Y-98169151D01*
X112463113Y-97620000D01*
X112353880Y-97070849D01*
X112042811Y-96605302D01*
X111660725Y-96350000D01*
X112042811Y-96094698D01*
X112353880Y-95629151D01*
X112463113Y-95080000D01*
X112353880Y-94530849D01*
X112042811Y-94065302D01*
X111660725Y-93810000D01*
X112042811Y-93554698D01*
X112353880Y-93089151D01*
X112463113Y-92540000D01*
X112353880Y-91990849D01*
X112042811Y-91525302D01*
X111638297Y-91255014D01*
X111855134Y-91152389D01*
X112231041Y-90737423D01*
X112358769Y-90429039D01*
X121702096Y-90429039D01*
X121862959Y-90817423D01*
X122238866Y-91232389D01*
X122744959Y-91471914D01*
X122967000Y-91350629D01*
X122967000Y-90207000D01*
X123221000Y-90207000D01*
X123221000Y-91350629D01*
X123443041Y-91471914D01*
X123949134Y-91232389D01*
X124325041Y-90817423D01*
X124485904Y-90429039D01*
X124363915Y-90207000D01*
X123221000Y-90207000D01*
X122967000Y-90207000D01*
X121824085Y-90207000D01*
X121702096Y-90429039D01*
X112358769Y-90429039D01*
X112391904Y-90349039D01*
X112269915Y-90127000D01*
X111127000Y-90127000D01*
X111127000Y-90147000D01*
X110873000Y-90147000D01*
X110873000Y-90127000D01*
X109730085Y-90127000D01*
X109608096Y-90349039D01*
X109768959Y-90737423D01*
X110144866Y-91152389D01*
X110361703Y-91255014D01*
X109957189Y-91525302D01*
X109646120Y-91990849D01*
X109536887Y-92540000D01*
X106460000Y-92540000D01*
X106460000Y-89780000D01*
X106402148Y-89489161D01*
X106402148Y-89489160D01*
X106237401Y-89242599D01*
X104778688Y-87783886D01*
X104843113Y-87460000D01*
X104733880Y-86910849D01*
X104422811Y-86445302D01*
X104040725Y-86190000D01*
X104422811Y-85934698D01*
X104733880Y-85469151D01*
X104843113Y-84920000D01*
X104733880Y-84370849D01*
X104422811Y-83905302D01*
X104040725Y-83650000D01*
X104422811Y-83394698D01*
X104733880Y-82929151D01*
X104843113Y-82380000D01*
X109536887Y-82380000D01*
X109646120Y-82929151D01*
X109957189Y-83394698D01*
X110339275Y-83650000D01*
X109957189Y-83905302D01*
X109646120Y-84370849D01*
X109536887Y-84920000D01*
X109646120Y-85469151D01*
X109957189Y-85934698D01*
X110339275Y-86190000D01*
X109957189Y-86445302D01*
X109646120Y-86910849D01*
X109536887Y-87460000D01*
X109646120Y-88009151D01*
X109957189Y-88474698D01*
X110361703Y-88744986D01*
X110144866Y-88847611D01*
X109768959Y-89262577D01*
X109608096Y-89650961D01*
X109730085Y-89873000D01*
X110873000Y-89873000D01*
X110873000Y-89853000D01*
X111127000Y-89853000D01*
X111127000Y-89873000D01*
X112269915Y-89873000D01*
X112391904Y-89650961D01*
X112231041Y-89262577D01*
X111855134Y-88847611D01*
X111638297Y-88744986D01*
X112042811Y-88474698D01*
X112353880Y-88009151D01*
X112463113Y-87460000D01*
X112353880Y-86910849D01*
X112042811Y-86445302D01*
X111660725Y-86190000D01*
X112042811Y-85934698D01*
X112353880Y-85469151D01*
X112463113Y-84920000D01*
X112353880Y-84370849D01*
X112042811Y-83905302D01*
X111660725Y-83650000D01*
X112042811Y-83394698D01*
X112353880Y-82929151D01*
X112463113Y-82380000D01*
X112353880Y-81830849D01*
X112042811Y-81365302D01*
X111577264Y-81054233D01*
X111028113Y-80945000D01*
X110971887Y-80945000D01*
X110422736Y-81054233D01*
X109957189Y-81365302D01*
X109646120Y-81830849D01*
X109536887Y-82380000D01*
X104843113Y-82380000D01*
X104778688Y-82056114D01*
X106574802Y-80260000D01*
X111585198Y-80260000D01*
X119402599Y-88077401D01*
X119649161Y-88242148D01*
X119940000Y-88300000D01*
X121881005Y-88300000D01*
X122051189Y-88554698D01*
X122455703Y-88824986D01*
X122238866Y-88927611D01*
X121862959Y-89342577D01*
X121702096Y-89730961D01*
X121824085Y-89953000D01*
X122967000Y-89953000D01*
X122967000Y-89933000D01*
X123221000Y-89933000D01*
X123221000Y-89953000D01*
X124363915Y-89953000D01*
X124485904Y-89730961D01*
X124325041Y-89342577D01*
X123949134Y-88927611D01*
X123732297Y-88824986D01*
X124136811Y-88554698D01*
X124447880Y-88089151D01*
X124557113Y-87540000D01*
X124447880Y-86990849D01*
X124136811Y-86525302D01*
X123754725Y-86270000D01*
X124136811Y-86014698D01*
X124447880Y-85549151D01*
X124557113Y-85000000D01*
X124447880Y-84450849D01*
X124136811Y-83985302D01*
X123732297Y-83715014D01*
X123949134Y-83612389D01*
X124325041Y-83197423D01*
X124485904Y-82809039D01*
X124363915Y-82587000D01*
X123221000Y-82587000D01*
X123221000Y-82607000D01*
X122967000Y-82607000D01*
X122967000Y-82587000D01*
X121824085Y-82587000D01*
X121702096Y-82809039D01*
X121862959Y-83197423D01*
X122238866Y-83612389D01*
X122455703Y-83715014D01*
X122051189Y-83985302D01*
X121881005Y-84240000D01*
X120948803Y-84240000D01*
X118819764Y-82110961D01*
X121702096Y-82110961D01*
X121824085Y-82333000D01*
X122967000Y-82333000D01*
X122967000Y-81189371D01*
X123221000Y-81189371D01*
X123221000Y-82333000D01*
X124363915Y-82333000D01*
X124485904Y-82110961D01*
X124325041Y-81722577D01*
X123949134Y-81307611D01*
X123443041Y-81068086D01*
X123221000Y-81189371D01*
X122967000Y-81189371D01*
X122744959Y-81068086D01*
X122238866Y-81307611D01*
X121862959Y-81722577D01*
X121702096Y-82110961D01*
X118819764Y-82110961D01*
X114199885Y-77491083D01*
X114268206Y-77326547D01*
X114268774Y-76676306D01*
X114020462Y-76075345D01*
X113561073Y-75615154D01*
X112960547Y-75365794D01*
X112310306Y-75365226D01*
X111709345Y-75613538D01*
X111249154Y-76072927D01*
X111179779Y-76240000D01*
X102667148Y-76240000D01*
X102478462Y-75783345D01*
X102019073Y-75323154D01*
X101418547Y-75073794D01*
X100768306Y-75073226D01*
X100167345Y-75321538D01*
X99707154Y-75780927D01*
X99457794Y-76381453D01*
X99457226Y-77031694D01*
X99705538Y-77632655D01*
X100164927Y-78092846D01*
X100765453Y-78342206D01*
X101415694Y-78342774D01*
X102016655Y-78094462D01*
X102351701Y-77760000D01*
X111179504Y-77760000D01*
X111247538Y-77924655D01*
X111706927Y-78384846D01*
X112307453Y-78634206D01*
X112957694Y-78634774D01*
X113124889Y-78565691D01*
X120096598Y-85537401D01*
X120223432Y-85622148D01*
X120343161Y-85702148D01*
X120634000Y-85760000D01*
X121881005Y-85760000D01*
X122051189Y-86014698D01*
X122433275Y-86270000D01*
X122051189Y-86525302D01*
X121881005Y-86780000D01*
X120254802Y-86780000D01*
X112437401Y-78962599D01*
X112190839Y-78797852D01*
X111900000Y-78740000D01*
X106260000Y-78740000D01*
X105969161Y-78797852D01*
X105722599Y-78962599D01*
X103685102Y-81000096D01*
X103408113Y-80945000D01*
X103351887Y-80945000D01*
X103074898Y-81000096D01*
X102897401Y-80822599D01*
X102650839Y-80657852D01*
X102360000Y-80600000D01*
X97542742Y-80600000D01*
X97519162Y-80474683D01*
X97380090Y-80258559D01*
X97167890Y-80113569D01*
X96916000Y-80062560D01*
X95616000Y-80062560D01*
X95380683Y-80106838D01*
X95164559Y-80245910D01*
X95019569Y-80458110D01*
X94968560Y-80710000D01*
X94968560Y-82010000D01*
X95012838Y-82245317D01*
X95151910Y-82461441D01*
X95364110Y-82606431D01*
X95616000Y-82657440D01*
X96916000Y-82657440D01*
X97151317Y-82613162D01*
X97367441Y-82474090D01*
X97512431Y-82261890D01*
X97541164Y-82120000D01*
X101968604Y-82120000D01*
X101916887Y-82380000D01*
X102026120Y-82929151D01*
X102337189Y-83394698D01*
X102719275Y-83650000D01*
X102337189Y-83905302D01*
X102026120Y-84370849D01*
X101916887Y-84920000D01*
X102026120Y-85469151D01*
X102337189Y-85934698D01*
X102719275Y-86190000D01*
X102337189Y-86445302D01*
X102167005Y-86700000D01*
X100982802Y-86700000D01*
X97819401Y-83536599D01*
X97572839Y-83371852D01*
X97282000Y-83314000D01*
X94040802Y-83314000D01*
X91692000Y-80965198D01*
X91692000Y-78162496D01*
X91856655Y-78094462D01*
X92316846Y-77635073D01*
X92566206Y-77034547D01*
X92566774Y-76384306D01*
X92318462Y-75783345D01*
X91859073Y-75323154D01*
X91258547Y-75073794D01*
X90608306Y-75073226D01*
X90007345Y-75321538D01*
X89547154Y-75780927D01*
X89477779Y-75948000D01*
X87850742Y-75948000D01*
X87827162Y-75822683D01*
X87688090Y-75606559D01*
X87475890Y-75461569D01*
X87224000Y-75410560D01*
X85924000Y-75410560D01*
X85688683Y-75454838D01*
X85472559Y-75593910D01*
X85327569Y-75806110D01*
X85276560Y-76058000D01*
X85276560Y-76220385D01*
X85203611Y-76044271D01*
X84973016Y-75988590D01*
X84253605Y-76708000D01*
X84973016Y-77427410D01*
X85203611Y-77371729D01*
X85276560Y-77162098D01*
X85276560Y-77358000D01*
X85320838Y-77593317D01*
X85459910Y-77809441D01*
X85672110Y-77954431D01*
X85924000Y-78005440D01*
X87224000Y-78005440D01*
X87459317Y-77961162D01*
X87675441Y-77822090D01*
X87820431Y-77609890D01*
X87849164Y-77468000D01*
X89477504Y-77468000D01*
X89545538Y-77632655D01*
X90004927Y-78092846D01*
X90172000Y-78162221D01*
X90172000Y-81280000D01*
X90229852Y-81570839D01*
X90394599Y-81817401D01*
X93188599Y-84611401D01*
X93435161Y-84776148D01*
X93726000Y-84834000D01*
X96967198Y-84834000D01*
X100130599Y-87997401D01*
X100377161Y-88162148D01*
X100668000Y-88220000D01*
X102167005Y-88220000D01*
X102337189Y-88474698D01*
X102719275Y-88730000D01*
X102337189Y-88985302D01*
X102026120Y-89450849D01*
X101916887Y-90000000D01*
X101981312Y-90323886D01*
X101940197Y-90365001D01*
X98059803Y-90365001D01*
X94309283Y-86614481D01*
X94980777Y-86614481D01*
X95175995Y-87086943D01*
X95537155Y-87448735D01*
X96009276Y-87644777D01*
X96520481Y-87645223D01*
X96992943Y-87450005D01*
X97354735Y-87088845D01*
X97550777Y-86616724D01*
X97551223Y-86105519D01*
X97356005Y-85633057D01*
X96994845Y-85271265D01*
X96522724Y-85075223D01*
X96011519Y-85074777D01*
X95539057Y-85269995D01*
X95177265Y-85631155D01*
X94981223Y-86103276D01*
X94980777Y-86614481D01*
X94309283Y-86614481D01*
X90398688Y-82703886D01*
X90463113Y-82380000D01*
X90353880Y-81830849D01*
X90042811Y-81365302D01*
X89577264Y-81054233D01*
X89028113Y-80945000D01*
X88971887Y-80945000D01*
X88422736Y-81054233D01*
X87957189Y-81365302D01*
X87787005Y-81620000D01*
X86594802Y-81620000D01*
X82581818Y-77607016D01*
X83354590Y-77607016D01*
X83410271Y-77837611D01*
X83893078Y-78005622D01*
X84403428Y-77976083D01*
X84737729Y-77837611D01*
X84793410Y-77607016D01*
X84074000Y-76887605D01*
X83354590Y-77607016D01*
X82581818Y-77607016D01*
X81501880Y-76527078D01*
X82776378Y-76527078D01*
X82805917Y-77037428D01*
X82944389Y-77371729D01*
X83174984Y-77427410D01*
X83894395Y-76708000D01*
X83174984Y-75988590D01*
X82944389Y-76044271D01*
X82776378Y-76527078D01*
X81501880Y-76527078D01*
X81174802Y-76200000D01*
X81565818Y-75808984D01*
X83354590Y-75808984D01*
X84074000Y-76528395D01*
X84793410Y-75808984D01*
X84737729Y-75578389D01*
X84254922Y-75410378D01*
X83744572Y-75439917D01*
X83410271Y-75578389D01*
X83354590Y-75808984D01*
X81565818Y-75808984D01*
X82213801Y-75161001D01*
X83098999Y-75161001D01*
X83389838Y-75103149D01*
X83604076Y-74960000D01*
X127499198Y-74960000D01*
X128536469Y-75997271D01*
X128467569Y-76098110D01*
X128416560Y-76350000D01*
X128416560Y-76512385D01*
X128343611Y-76336271D01*
X128113016Y-76280590D01*
X127393605Y-77000000D01*
X128113016Y-77719410D01*
X128343611Y-77663729D01*
X128416560Y-77454098D01*
X128416560Y-77650000D01*
X128460838Y-77885317D01*
X128599910Y-78101441D01*
X128812110Y-78246431D01*
X128954000Y-78275164D01*
X128954000Y-81460000D01*
X129011852Y-81750839D01*
X129176599Y-81997401D01*
X129315312Y-82136114D01*
X129250887Y-82460000D01*
X129251405Y-82462603D01*
X124687818Y-77899016D01*
X126494590Y-77899016D01*
X126550271Y-78129611D01*
X127033078Y-78297622D01*
X127543428Y-78268083D01*
X127877729Y-78129611D01*
X127933410Y-77899016D01*
X127214000Y-77179605D01*
X126494590Y-77899016D01*
X124687818Y-77899016D01*
X124336412Y-77547610D01*
X124428206Y-77326547D01*
X124428649Y-76819078D01*
X125916378Y-76819078D01*
X125945917Y-77329428D01*
X126084389Y-77663729D01*
X126314984Y-77719410D01*
X127034395Y-77000000D01*
X126314984Y-76280590D01*
X126084389Y-76336271D01*
X125916378Y-76819078D01*
X124428649Y-76819078D01*
X124428774Y-76676306D01*
X124191056Y-76100984D01*
X126494590Y-76100984D01*
X127214000Y-76820395D01*
X127933410Y-76100984D01*
X127877729Y-75870389D01*
X127394922Y-75702378D01*
X126884572Y-75731917D01*
X126550271Y-75870389D01*
X126494590Y-76100984D01*
X124191056Y-76100984D01*
X124180462Y-76075345D01*
X123721073Y-75615154D01*
X123120547Y-75365794D01*
X122470306Y-75365226D01*
X121869345Y-75613538D01*
X121409154Y-76072927D01*
X121159794Y-76673453D01*
X121159226Y-77323694D01*
X121407538Y-77924655D01*
X121866927Y-78384846D01*
X122467453Y-78634206D01*
X123117694Y-78634774D01*
X123228279Y-78589081D01*
X129315312Y-84676114D01*
X129250887Y-85000000D01*
X129315312Y-85323886D01*
X126362599Y-88276599D01*
X126197852Y-88523161D01*
X126140000Y-88814000D01*
X126140000Y-107785198D01*
X119985198Y-113940000D01*
X116900000Y-113940000D01*
X116609161Y-113997852D01*
X116362599Y-114162599D01*
X111122599Y-119402599D01*
X110957852Y-119649161D01*
X110900000Y-119940000D01*
X110900000Y-120229352D01*
X110600330Y-120429585D01*
X110390000Y-120744366D01*
X110179670Y-120429585D01*
X109693489Y-120104729D01*
X109120000Y-119990655D01*
X108546511Y-120104729D01*
X108060330Y-120429585D01*
X107850000Y-120744366D01*
X107639670Y-120429585D01*
X107153489Y-120104729D01*
X106580000Y-119990655D01*
X106006511Y-120104729D01*
X105520330Y-120429585D01*
X105310000Y-120744366D01*
X105099670Y-120429585D01*
X104613489Y-120104729D01*
X104040000Y-119990655D01*
X103466511Y-120104729D01*
X102980330Y-120429585D01*
X102770000Y-120744366D01*
X102559670Y-120429585D01*
X102073489Y-120104729D01*
X101500000Y-119990655D01*
X100926511Y-120104729D01*
X100440330Y-120429585D01*
X100230000Y-120744366D01*
X100019670Y-120429585D01*
X99533489Y-120104729D01*
X98960000Y-119990655D01*
X98386511Y-120104729D01*
X97900330Y-120429585D01*
X97690000Y-120744366D01*
X97479670Y-120429585D01*
X96993489Y-120104729D01*
X96420000Y-119990655D01*
X95846511Y-120104729D01*
X95360330Y-120429585D01*
X95150000Y-120744366D01*
X94939670Y-120429585D01*
X94453489Y-120104729D01*
X93880000Y-119990655D01*
X93306511Y-120104729D01*
X92820330Y-120429585D01*
X92610000Y-120744366D01*
X92399670Y-120429585D01*
X91913489Y-120104729D01*
X91340000Y-119990655D01*
X90766511Y-120104729D01*
X90280330Y-120429585D01*
X90070000Y-120744366D01*
X89859670Y-120429585D01*
X89373489Y-120104729D01*
X88800000Y-119990655D01*
X88226511Y-120104729D01*
X87740330Y-120429585D01*
X87530000Y-120744366D01*
X87319670Y-120429585D01*
X86833489Y-120104729D01*
X86260000Y-119990655D01*
X85686511Y-120104729D01*
X85200330Y-120429585D01*
X84875474Y-120915766D01*
X84761400Y-121489255D01*
X84761400Y-121858745D01*
X84875474Y-122432234D01*
X85200330Y-122918415D01*
X85686511Y-123243271D01*
X86260000Y-123357345D01*
X86833489Y-123243271D01*
X87319670Y-122918415D01*
X87530000Y-122603634D01*
X87740330Y-122918415D01*
X88226511Y-123243271D01*
X88800000Y-123357345D01*
X89373489Y-123243271D01*
X89859670Y-122918415D01*
X90070000Y-122603634D01*
X90280330Y-122918415D01*
X90766511Y-123243271D01*
X91340000Y-123357345D01*
X91913489Y-123243271D01*
X92399670Y-122918415D01*
X92610000Y-122603634D01*
X92820330Y-122918415D01*
X93306511Y-123243271D01*
X93880000Y-123357345D01*
X94453489Y-123243271D01*
X94939670Y-122918415D01*
X95150000Y-122603634D01*
X95360330Y-122918415D01*
X95846511Y-123243271D01*
X96420000Y-123357345D01*
X96993489Y-123243271D01*
X97479670Y-122918415D01*
X97690000Y-122603634D01*
X97900330Y-122918415D01*
X98386511Y-123243271D01*
X98960000Y-123357345D01*
X99533489Y-123243271D01*
X100019670Y-122918415D01*
X100230000Y-122603634D01*
X100440330Y-122918415D01*
X100926511Y-123243271D01*
X101500000Y-123357345D01*
X102073489Y-123243271D01*
X102559670Y-122918415D01*
X102770000Y-122603634D01*
X102980330Y-122918415D01*
X103466511Y-123243271D01*
X104040000Y-123357345D01*
X104613489Y-123243271D01*
X105099670Y-122918415D01*
X105310000Y-122603634D01*
X105520330Y-122918415D01*
X106006511Y-123243271D01*
X106580000Y-123357345D01*
X107153489Y-123243271D01*
X107639670Y-122918415D01*
X107850000Y-122603634D01*
X108060330Y-122918415D01*
X108546511Y-123243271D01*
X109120000Y-123357345D01*
X109693489Y-123243271D01*
X110179670Y-122918415D01*
X110390000Y-122603634D01*
X110600330Y-122918415D01*
X111086511Y-123243271D01*
X111660000Y-123357345D01*
X112233489Y-123243271D01*
X112719670Y-122918415D01*
X112930000Y-122603634D01*
X113140330Y-122918415D01*
X113626511Y-123243271D01*
X114200000Y-123357345D01*
X114773489Y-123243271D01*
X115259670Y-122918415D01*
X115470000Y-122603634D01*
X115680330Y-122918415D01*
X116166511Y-123243271D01*
X116740000Y-123357345D01*
X117313489Y-123243271D01*
X117799670Y-122918415D01*
X118010000Y-122603634D01*
X118220330Y-122918415D01*
X118706511Y-123243271D01*
X119280000Y-123357345D01*
X119853489Y-123243271D01*
X120339670Y-122918415D01*
X120349243Y-122904087D01*
X120353238Y-122925317D01*
X120492310Y-123141441D01*
X120704510Y-123286431D01*
X120956400Y-123337440D01*
X122683600Y-123337440D01*
X122918917Y-123293162D01*
X123135041Y-123154090D01*
X123280031Y-122941890D01*
X123331040Y-122690000D01*
X123331040Y-120658000D01*
X123286762Y-120422683D01*
X123147690Y-120206559D01*
X122935490Y-120061569D01*
X122683600Y-120010560D01*
X120956400Y-120010560D01*
X120721083Y-120054838D01*
X120504959Y-120193910D01*
X120359969Y-120406110D01*
X120351600Y-120447439D01*
X120339670Y-120429585D01*
X119853489Y-120104729D01*
X119280000Y-119990655D01*
X118706511Y-120104729D01*
X118220330Y-120429585D01*
X118010000Y-120744366D01*
X117799670Y-120429585D01*
X117313489Y-120104729D01*
X116740000Y-119990655D01*
X116166511Y-120104729D01*
X115680330Y-120429585D01*
X115470000Y-120744366D01*
X115259670Y-120429585D01*
X114773489Y-120104729D01*
X114200000Y-119990655D01*
X113626511Y-120104729D01*
X113140330Y-120429585D01*
X112930000Y-120744366D01*
X112719670Y-120429585D01*
X112435256Y-120239546D01*
X114846630Y-117828172D01*
X124532538Y-117828172D01*
X124937709Y-118808761D01*
X125687293Y-119559655D01*
X126667173Y-119966536D01*
X127728172Y-119967462D01*
X128708761Y-119562291D01*
X129459655Y-118812707D01*
X129866536Y-117832827D01*
X129867462Y-116771828D01*
X129462291Y-115791239D01*
X128712707Y-115040345D01*
X127732827Y-114633464D01*
X126671828Y-114632538D01*
X125691239Y-115037709D01*
X124940345Y-115787293D01*
X124533464Y-116767173D01*
X124532538Y-117828172D01*
X114846630Y-117828172D01*
X117214802Y-115460000D01*
X120300000Y-115460000D01*
X120590839Y-115402148D01*
X120837401Y-115237401D01*
X127437401Y-108637401D01*
X127602148Y-108390839D01*
X127660000Y-108100000D01*
X127660000Y-89128802D01*
X129251405Y-87537397D01*
X129250887Y-87540000D01*
X129360120Y-88089151D01*
X129671189Y-88554698D01*
X130053275Y-88810000D01*
X129671189Y-89065302D01*
X129360120Y-89530849D01*
X129250887Y-90080000D01*
X129360120Y-90629151D01*
X129671189Y-91094698D01*
X130136736Y-91405767D01*
X130685887Y-91515000D01*
X130742113Y-91515000D01*
X131291264Y-91405767D01*
X131756811Y-91094698D01*
X132067880Y-90629151D01*
X132177113Y-90080000D01*
X132067880Y-89530849D01*
X131756811Y-89065302D01*
X131374725Y-88810000D01*
X131756811Y-88554698D01*
X132067880Y-88089151D01*
X132177113Y-87540000D01*
X132067880Y-86990849D01*
X131756811Y-86525302D01*
X131374725Y-86270000D01*
X131756811Y-86014698D01*
X132067880Y-85549151D01*
X132177113Y-85000000D01*
X132067880Y-84450849D01*
X131756811Y-83985302D01*
X131374725Y-83730000D01*
X131756811Y-83474698D01*
X132067880Y-83009151D01*
X132177113Y-82460000D01*
X132067880Y-81910849D01*
X131756811Y-81445302D01*
X131291264Y-81134233D01*
X130742113Y-81025000D01*
X130685887Y-81025000D01*
X130474000Y-81067147D01*
X130474000Y-78276742D01*
X130599317Y-78253162D01*
X130815441Y-78114090D01*
X130960431Y-77901890D01*
X131011440Y-77650000D01*
X131011440Y-76350000D01*
X130967162Y-76114683D01*
X130828090Y-75898559D01*
X130615890Y-75753569D01*
X130364000Y-75702560D01*
X130344920Y-75702560D01*
X130251401Y-75562599D01*
X128351401Y-73662599D01*
X128104839Y-73497852D01*
X127814000Y-73440000D01*
X83300000Y-73440000D01*
X83009160Y-73497852D01*
X82794923Y-73641001D01*
X81898999Y-73641001D01*
X81608160Y-73698853D01*
X81361598Y-73863600D01*
X79862599Y-75362599D01*
X79697852Y-75609161D01*
X79640000Y-75900000D01*
X79640000Y-76500000D01*
X79697852Y-76790839D01*
X79862599Y-77037401D01*
X85742599Y-82917401D01*
X85989161Y-83082148D01*
X86280000Y-83140000D01*
X87787005Y-83140000D01*
X87957189Y-83394698D01*
X88339275Y-83650000D01*
X87957189Y-83905302D01*
X87646120Y-84370849D01*
X87536887Y-84920000D01*
X87601312Y-85243886D01*
X84762599Y-88082599D01*
X84597852Y-88329161D01*
X84540000Y-88620000D01*
X84540000Y-90237537D01*
X84507808Y-90269673D01*
X84365162Y-90613201D01*
X84364838Y-90985167D01*
X84506883Y-91328943D01*
X84769673Y-91592192D01*
X85113201Y-91734838D01*
X85485167Y-91735162D01*
X85828943Y-91593117D01*
X86092192Y-91330327D01*
X86234838Y-90986799D01*
X86235162Y-90614833D01*
X86093117Y-90271057D01*
X86060000Y-90237882D01*
X86060000Y-88934802D01*
X87537405Y-87457397D01*
X87536887Y-87460000D01*
X87646120Y-88009151D01*
X87957189Y-88474698D01*
X88339275Y-88730000D01*
X87957189Y-88985302D01*
X87646120Y-89450849D01*
X87536887Y-90000000D01*
X87646120Y-90549151D01*
X87957189Y-91014698D01*
X88339275Y-91270000D01*
X87957189Y-91525302D01*
X87646120Y-91990849D01*
X87536887Y-92540000D01*
X87646120Y-93089151D01*
X87957189Y-93554698D01*
X88339275Y-93810000D01*
X87957189Y-94065302D01*
X87646120Y-94530849D01*
X87536887Y-95080000D01*
X87646120Y-95629151D01*
X87957189Y-96094698D01*
X88339275Y-96350000D01*
X87957189Y-96605302D01*
X87646120Y-97070849D01*
X87536887Y-97620000D01*
X87646120Y-98169151D01*
X87957189Y-98634698D01*
X88422736Y-98945767D01*
X88971887Y-99055000D01*
X89028113Y-99055000D01*
X89577264Y-98945767D01*
X90042811Y-98634698D01*
X90353880Y-98169151D01*
X90463113Y-97620000D01*
X90353880Y-97070849D01*
X90042811Y-96605302D01*
X89660725Y-96350000D01*
X90042811Y-96094698D01*
X90353880Y-95629151D01*
X90463113Y-95080000D01*
X90353880Y-94530849D01*
X90042811Y-94065302D01*
X89660725Y-93810000D01*
X90042811Y-93554698D01*
X90353880Y-93089151D01*
X90463113Y-92540000D01*
X90353880Y-91990849D01*
X90042811Y-91525302D01*
X89660725Y-91270000D01*
X90042811Y-91014698D01*
X90353880Y-90549151D01*
X90463113Y-90000000D01*
X90353880Y-89450849D01*
X90042811Y-88985302D01*
X89660725Y-88730000D01*
X90042811Y-88474698D01*
X90353880Y-88009151D01*
X90463113Y-87460000D01*
X90353880Y-86910849D01*
X90042811Y-86445302D01*
X89660725Y-86190000D01*
X90042811Y-85934698D01*
X90353880Y-85469151D01*
X90463113Y-84920000D01*
X90462595Y-84917397D01*
X97207600Y-91662402D01*
X97454162Y-91827149D01*
X97745001Y-91885001D01*
X99087739Y-91885001D01*
X99040000Y-92125001D01*
X99040000Y-97600000D01*
X99097852Y-97890839D01*
X99262599Y-98137401D01*
X101462599Y-100337401D01*
X101709161Y-100502148D01*
X102000000Y-100560000D01*
X102385198Y-100560000D01*
X102770596Y-100945398D01*
X102246547Y-100727794D01*
X101596306Y-100727226D01*
X100995345Y-100975538D01*
X100535154Y-101434927D01*
X100465779Y-101602000D01*
X95772802Y-101602000D01*
X96739680Y-100635122D01*
X96785167Y-100635162D01*
X97128943Y-100493117D01*
X97392192Y-100230327D01*
X97534838Y-99886799D01*
X97535162Y-99514833D01*
X97393117Y-99171057D01*
X97130327Y-98907808D01*
X96786799Y-98765162D01*
X96414833Y-98764838D01*
X96071057Y-98906883D01*
X95807808Y-99169673D01*
X95665162Y-99513201D01*
X95665121Y-99560076D01*
X93623198Y-101602000D01*
X91534496Y-101602000D01*
X91466462Y-101437345D01*
X91007073Y-100977154D01*
X90406547Y-100727794D01*
X89756306Y-100727226D01*
X89155345Y-100975538D01*
X88695154Y-101434927D01*
X88445794Y-102035453D01*
X88445226Y-102685694D01*
X88693538Y-103286655D01*
X89152927Y-103746846D01*
X89753453Y-103996206D01*
X90403694Y-103996774D01*
X91004655Y-103748462D01*
X91464846Y-103289073D01*
X91534221Y-103122000D01*
X100465504Y-103122000D01*
X100533538Y-103286655D01*
X100992927Y-103746846D01*
X101593453Y-103996206D01*
X102243694Y-103996774D01*
X102844655Y-103748462D01*
X103304846Y-103289073D01*
X103554206Y-102688547D01*
X103554774Y-102038306D01*
X103337387Y-101512189D01*
X106562599Y-104737401D01*
X106583467Y-104751345D01*
X106580000Y-104750655D01*
X106006511Y-104864729D01*
X105520330Y-105189585D01*
X105310000Y-105504366D01*
X105099670Y-105189585D01*
X104613489Y-104864729D01*
X104040000Y-104750655D01*
X103466511Y-104864729D01*
X102980330Y-105189585D01*
X102770000Y-105504366D01*
X102559670Y-105189585D01*
X102073489Y-104864729D01*
X101500000Y-104750655D01*
X100926511Y-104864729D01*
X100440330Y-105189585D01*
X100230000Y-105504366D01*
X100019670Y-105189585D01*
X99533489Y-104864729D01*
X98960000Y-104750655D01*
X98386511Y-104864729D01*
X97900330Y-105189585D01*
X97690000Y-105504366D01*
X97479670Y-105189585D01*
X96993489Y-104864729D01*
X96420000Y-104750655D01*
X95846511Y-104864729D01*
X95360330Y-105189585D01*
X95150000Y-105504366D01*
X94939670Y-105189585D01*
X94453489Y-104864729D01*
X93880000Y-104750655D01*
X93306511Y-104864729D01*
X92820330Y-105189585D01*
X92610000Y-105504366D01*
X92399670Y-105189585D01*
X91913489Y-104864729D01*
X91340000Y-104750655D01*
X90766511Y-104864729D01*
X90280330Y-105189585D01*
X90070000Y-105504366D01*
X89859670Y-105189585D01*
X89373489Y-104864729D01*
X88800000Y-104750655D01*
X88226511Y-104864729D01*
X87740330Y-105189585D01*
X87530000Y-105504366D01*
X87319670Y-105189585D01*
X86833489Y-104864729D01*
X86260000Y-104750655D01*
X85686511Y-104864729D01*
X85200330Y-105189585D01*
X84875474Y-105675766D01*
X84761400Y-106249255D01*
X84761400Y-106618745D01*
X84875474Y-107192234D01*
X85200330Y-107678415D01*
X85686511Y-108003271D01*
X86260000Y-108117345D01*
X86833489Y-108003271D01*
X87319670Y-107678415D01*
X87530000Y-107363634D01*
X87740330Y-107678415D01*
X88040000Y-107878648D01*
X88040000Y-107885198D01*
X87185198Y-108740000D01*
X79514802Y-108740000D01*
X74760000Y-103985198D01*
X74760000Y-103514163D01*
X78947443Y-103514163D01*
X79046042Y-103780965D01*
X79655582Y-104007401D01*
X80305377Y-103983341D01*
X80793958Y-103780965D01*
X80892557Y-103514163D01*
X79920000Y-102541605D01*
X78947443Y-103514163D01*
X74760000Y-103514163D01*
X74760000Y-102097582D01*
X78274599Y-102097582D01*
X78298659Y-102747377D01*
X78501035Y-103235958D01*
X78767837Y-103334557D01*
X79740395Y-102362000D01*
X80099605Y-102362000D01*
X81072163Y-103334557D01*
X81338965Y-103235958D01*
X81565401Y-102626418D01*
X81541341Y-101976623D01*
X81338965Y-101488042D01*
X81072163Y-101389443D01*
X80099605Y-102362000D01*
X79740395Y-102362000D01*
X78767837Y-101389443D01*
X78501035Y-101488042D01*
X78274599Y-102097582D01*
X74760000Y-102097582D01*
X74760000Y-101209837D01*
X78947443Y-101209837D01*
X79920000Y-102182395D01*
X80892557Y-101209837D01*
X80793958Y-100943035D01*
X80184418Y-100716599D01*
X79534623Y-100740659D01*
X79046042Y-100943035D01*
X78947443Y-101209837D01*
X74760000Y-101209837D01*
X74760000Y-100534496D01*
X74924655Y-100466462D01*
X75384846Y-100007073D01*
X75634206Y-99406547D01*
X75634774Y-98756306D01*
X75386462Y-98155345D01*
X75200481Y-97969039D01*
X79988096Y-97969039D01*
X80148959Y-98357423D01*
X80524866Y-98772389D01*
X81030959Y-99011914D01*
X81253000Y-98890629D01*
X81253000Y-97747000D01*
X81507000Y-97747000D01*
X81507000Y-98890629D01*
X81729041Y-99011914D01*
X82235134Y-98772389D01*
X82611041Y-98357423D01*
X82771904Y-97969039D01*
X82649915Y-97747000D01*
X81507000Y-97747000D01*
X81253000Y-97747000D01*
X80110085Y-97747000D01*
X79988096Y-97969039D01*
X75200481Y-97969039D01*
X74927073Y-97695154D01*
X74326547Y-97445794D01*
X73676306Y-97445226D01*
X73075345Y-97693538D01*
X72615154Y-98152927D01*
X72545779Y-98320000D01*
X70920000Y-98320000D01*
X70629161Y-98377852D01*
X70382599Y-98542599D01*
X65162599Y-103762599D01*
X64997852Y-104009161D01*
X64940000Y-104300000D01*
X64940000Y-111785198D01*
X64774809Y-111950389D01*
X64884563Y-83140000D01*
X80167005Y-83140000D01*
X80337189Y-83394698D01*
X80719275Y-83650000D01*
X80337189Y-83905302D01*
X80026120Y-84370849D01*
X79916887Y-84920000D01*
X79981312Y-85243886D01*
X77065198Y-88160000D01*
X75454496Y-88160000D01*
X75386462Y-87995345D01*
X74927073Y-87535154D01*
X74326547Y-87285794D01*
X73676306Y-87285226D01*
X73075345Y-87533538D01*
X72615154Y-87992927D01*
X72365794Y-88593453D01*
X72365226Y-89243694D01*
X72613538Y-89844655D01*
X73072927Y-90304846D01*
X73673453Y-90554206D01*
X74323694Y-90554774D01*
X74924655Y-90306462D01*
X75384846Y-89847073D01*
X75454221Y-89680000D01*
X77380000Y-89680000D01*
X77670839Y-89622148D01*
X77917401Y-89457401D01*
X79917405Y-87457397D01*
X79916887Y-87460000D01*
X80026120Y-88009151D01*
X80337189Y-88474698D01*
X80719275Y-88730000D01*
X80337189Y-88985302D01*
X80026120Y-89450849D01*
X79916887Y-90000000D01*
X80026120Y-90549151D01*
X80337189Y-91014698D01*
X80719275Y-91270000D01*
X80337189Y-91525302D01*
X80026120Y-91990849D01*
X79916887Y-92540000D01*
X80026120Y-93089151D01*
X80337189Y-93554698D01*
X80719275Y-93810000D01*
X80337189Y-94065302D01*
X80026120Y-94530849D01*
X79916887Y-95080000D01*
X80026120Y-95629151D01*
X80337189Y-96094698D01*
X80741703Y-96364986D01*
X80524866Y-96467611D01*
X80148959Y-96882577D01*
X79988096Y-97270961D01*
X80110085Y-97493000D01*
X81253000Y-97493000D01*
X81253000Y-97473000D01*
X81507000Y-97473000D01*
X81507000Y-97493000D01*
X82649915Y-97493000D01*
X82771904Y-97270961D01*
X82611041Y-96882577D01*
X82235134Y-96467611D01*
X82018297Y-96364986D01*
X82422811Y-96094698D01*
X82733880Y-95629151D01*
X82843113Y-95080000D01*
X82733880Y-94530849D01*
X82422811Y-94065302D01*
X82040725Y-93810000D01*
X82422811Y-93554698D01*
X82733880Y-93089151D01*
X82843113Y-92540000D01*
X82733880Y-91990849D01*
X82422811Y-91525302D01*
X82040725Y-91270000D01*
X82422811Y-91014698D01*
X82733880Y-90549151D01*
X82843113Y-90000000D01*
X82733880Y-89450849D01*
X82422811Y-88985302D01*
X82040725Y-88730000D01*
X82422811Y-88474698D01*
X82733880Y-88009151D01*
X82843113Y-87460000D01*
X82733880Y-86910849D01*
X82422811Y-86445302D01*
X82040725Y-86190000D01*
X82422811Y-85934698D01*
X82592995Y-85680000D01*
X83805198Y-85680000D01*
X84064878Y-85939680D01*
X84064838Y-85985167D01*
X84206883Y-86328943D01*
X84469673Y-86592192D01*
X84813201Y-86734838D01*
X85185167Y-86735162D01*
X85528943Y-86593117D01*
X85792192Y-86330327D01*
X85934838Y-85986799D01*
X85935162Y-85614833D01*
X85793117Y-85271057D01*
X85530327Y-85007808D01*
X85186799Y-84865162D01*
X85139923Y-84865121D01*
X84657401Y-84382599D01*
X84410839Y-84217852D01*
X84120000Y-84160000D01*
X82592995Y-84160000D01*
X82422811Y-83905302D01*
X82040725Y-83650000D01*
X82422811Y-83394698D01*
X82733880Y-82929151D01*
X82843113Y-82380000D01*
X82733880Y-81830849D01*
X82422811Y-81365302D01*
X81957264Y-81054233D01*
X81408113Y-80945000D01*
X81351887Y-80945000D01*
X80802736Y-81054233D01*
X80337189Y-81365302D01*
X80167005Y-81620000D01*
X64890353Y-81620000D01*
X64921565Y-73427000D01*
X132712900Y-73427000D01*
X132673100Y-123773000D01*
M02*
